<?xml version="1.0" encoding="utf-8"?>
<!-- Generator: Adobe Illustrator 19.0.0, SVG Export Plug-In . SVG Version: 6.00 Build 0)  -->
<svg version="1.1" id="图层_1" xmlns="http://www.w3.org/2000/svg" xmlns:xlink="http://www.w3.org/1999/xlink" x="0px" y="0px"
	 viewBox="0 0 80 80" style="enable-background:new 0 0 80 80;" xml:space="preserve">
<style type="text/css">
	.st0{fill-rule:evenodd;clip-rule:evenodd;fill:#FBCA00;}
	.st1{fill-rule:evenodd;clip-rule:evenodd;fill:#E1E6EB;}
	.st2{fill:#FBCA00;}
	.st3{fill-rule:evenodd;clip-rule:evenodd;fill:url(#XMLID_17_);}
	.st4{fill:#FFFFFF;}
</style>
<path id="XMLID_7_" class="st0" d="M40.7,51.3l15.8-9.2l16.2,28.3L60,66l-3,13.6L40.7,51.3z"/>
<path id="XMLID_5_" class="st0" d="M39.7,51l-16-9.3L7.3,70.3l12.9-4.4l3.1,13.7L39.7,51z"/>
<g id="XMLID_16_">
	<path id="XMLID_4_" class="st1" d="M67.2,22.1c-0.9-3.2-3.4-5.4-6.4-6c0.5-3-0.6-6.2-3.2-8.3C55,5.6,51.3,5.4,48.5,7
		c-1.3-3-4.3-5.1-7.8-5.1c-3.2,0-6,1.8-7.5,4.5c-2.7-1.3-6.1-1.2-8.7,0.8c-2.6,1.9-3.9,5.1-3.5,8.1c-3,0.5-5.6,2.7-6.6,5.8
		c-1,3.1-0.2,6.4,1.9,8.6c-2.1,2.2-3,5.5-2,8.6c1,3.1,3.5,5.3,6.5,5.9c-0.4,3,0.7,6.2,3.3,8.2c2.6,2,5.9,2.2,8.7,0.9
		c1.4,2.7,4.2,4.6,7.4,4.7c3.2,0.1,6.1-1.7,7.6-4.4c2.7,1.4,6,1.3,8.7-0.6c2.7-1.9,3.9-5,3.6-8.1c3-0.5,5.6-2.6,6.7-5.6
		c1.1-3.1,0.3-6.4-1.7-8.7C67.2,28.5,68.1,25.2,67.2,22.1"/>
	<path id="XMLID_13_" class="st2" d="M40.3,59.4c-0.1,0-0.1,0-0.2,0c-3.2-0.1-6.2-1.7-8-4.3c-3,1-6.3,0.4-8.9-1.6c-2.6-2-4-5-4-8.3
		c-3-1-5.4-3.4-6.3-6.5c-1-3.1-0.4-6.5,1.6-9c-1.9-2.6-2.4-6-1.4-9.1c1-3.1,3.4-5.5,6.5-6.4c0-3.2,1.5-6.3,4.1-8.2
		c2.6-1.9,5.9-2.4,8.9-1.4c1.8-2.6,4.8-4.2,8.1-4.2c3.4,0,6.6,1.8,8.4,4.7c3.2-1.2,6.8-0.6,9.5,1.5c2.5,2,3.9,5.1,3.8,8.3
		c3,1.1,5.3,3.5,6.2,6.7c0.9,3.1,0.2,6.5-1.7,9c1.8,2.6,2.3,6,1.2,9.1c-1.1,3.1-3.5,5.4-6.6,6.3c-0.1,3.2-1.6,6.2-4.3,8.1
		c-2.6,1.9-6,2.3-9,1.2C46.4,57.9,43.4,59.4,40.3,59.4z M33.4,51.5l0.6,1.2c1.2,2.4,3.6,3.9,6.2,3.9c2.7,0.1,5-1.4,6.3-3.7l0.7-1.2
		l1.2,0.6c2.3,1.2,5.1,1,7.2-0.5c2.2-1.5,3.3-4.1,3-6.8l-0.1-1.3l1.3-0.2c2.6-0.4,4.7-2.2,5.6-4.7c0.9-2.5,0.3-5.3-1.4-7.3l-0.9-1
		l0.9-0.9c1.9-1.9,2.6-4.6,1.8-7.2v0c-0.7-2.6-2.8-4.5-5.3-5.1l-1.3-0.3l0.2-1.3c0.4-2.6-0.6-5.3-2.6-6.9c-2.2-1.8-5.2-2-7.7-0.7
		l-1.3,0.7l-0.6-1.4c-1.1-2.6-3.7-4.3-6.5-4.3c-2.6,0-5,1.5-6.2,3.8l-0.6,1.2l-1.2-0.6c-2.4-1.2-5.1-0.9-7.2,0.6
		c-2.1,1.6-3.2,4.2-2.9,6.8l0.2,1.3l-1.3,0.2c-2.6,0.5-4.7,2.3-5.5,4.8c-0.8,2.5-0.2,5.3,1.6,7.3l0.9,1l-0.9,1
		c-1.8,1.9-2.5,4.7-1.7,7.2c0.8,2.5,2.9,4.4,5.4,4.9l1.3,0.3l-0.2,1.3c-0.4,2.6,0.7,5.3,2.8,6.9c2.1,1.6,4.9,1.9,7.2,0.8L33.4,51.5z
		"/>
</g>
<linearGradient id="XMLID_17_" gradientUnits="userSpaceOnUse" x1="23.4964" y1="29.9249" x2="57.9471" y2="29.9249">
	<stop  offset="0.5" style="stop-color:#FADA00"/>
	<stop  offset="0.5" style="stop-color:#FBCA00"/>
</linearGradient>
<path id="XMLID_2_" class="st3" d="M40.7,12.6c9.5,0,17.2,7.8,17.2,17.4c0,9.6-7.7,17.4-17.2,17.4c-9.5,0-17.2-7.8-17.2-17.4
	C23.5,20.3,31.2,12.6,40.7,12.6z"/>
<g id="XMLID_9_">
	<path id="XMLID_10_" class="st4" d="M38.3,37.9V24.8h-1.9v-1.9l3.7-1.9h1.9v16.9H38.3z"/>
</g>
</svg>
