<?xml version="1.0" encoding="UTF-8" standalone="no"?>
<svg width="20px" height="20px" viewBox="0 0 20 20" version="1.1" xmlns="http://www.w3.org/2000/svg" xmlns:xlink="http://www.w3.org/1999/xlink">
    <!-- Generator: Sketch 39.1 (31720) - http://www.bohemiancoding.com/sketch -->
    <title>Icon/Tags</title>
    <desc>Created with Sketch.</desc>
    <defs></defs>
    <g id="投资人Tab_投资人详情页" stroke="none" stroke-width="1" fill="none" fill-rule="evenodd">
        <g id="投资人详情页_三栏" transform="translate(-566.000000, -83.000000)">
            <g id="Right-Content" transform="translate(351.000000, 51.000000)">
                <g id="Top-Card" transform="translate(50.000000, 28.000000)">
                    <g id="Company" transform="translate(1.000000, 0.000000)">
                        <g id="Icon/Location" transform="translate(164.000000, 4.000000)">
                            <g id="Page-1" transform="translate(5.000000, 4.000000)" fill="#CCCCCC">
                                <path d="M8.56598239,7.66442095 C9.30296501,6.85128412 9.75,5.78406017 9.75,4.61538462 C9.75,2.06637808 7.62335256,0 5,0 C2.37664744,0 0.25,2.06637808 0.25,4.61538462 C0.25,5.75350893 0.673967929,6.79541656 1.37681679,7.60013227 L4.98660583,12 L8.56598239,7.66442095 Z M5,6.46153846 C6.04934102,6.46153846 6.9,5.63498723 6.9,4.61538462 C6.9,3.595782 6.04934102,2.76923077 5,2.76923077 C3.95065898,2.76923077 3.1,3.595782 3.1,4.61538462 C3.1,5.63498723 3.95065898,6.46153846 5,6.46153846 Z" id="Combined-Shape"></path>
                            </g>
                            <rect id="wireframe" fill-opacity="0" fill="#FF8888" x="0" y="0" width="20" height="20"></rect>
                        </g>
                    </g>
                </g>
            </g>
        </g>
    </g>
</svg>