<?xml version="1.0" encoding="utf-8"?>
<!-- Generator: Adobe Illustrator 19.0.0, SVG Export Plug-In . SVG Version: 6.00 Build 0)  -->
<svg version="1.1" id="图层_1" xmlns="http://www.w3.org/2000/svg" xmlns:xlink="http://www.w3.org/1999/xlink" x="0px" y="0px"
	 viewBox="0 0 20 20" style="enable-background:new 0 0 20 20;" xml:space="preserve">
<style type="text/css">
	.st0{fill-rule:evenodd;clip-rule:evenodd;fill:#89919A;}
</style>
<path class="st0" d="M15.1,12.6c0.5,0,0.9-0.4,0.9-0.9V8.2c0-0.5-0.4-0.9-0.9-0.9c-0.5,0-0.9,0.4-0.9,0.9v3.5
	C14.2,12.2,14.6,12.6,15.1,12.6z M11.4,4.2L12,3.1c0-0.1,0-0.1,0-0.1c-0.1,0-0.1,0-0.1,0l-0.6,1.1C10.8,4,10.3,3.9,9.8,3.9
	c-0.5,0-1,0.1-1.4,0.3L7.8,3C7.8,3,7.7,3,7.7,3c-0.1,0-0.1,0.1,0,0.1l0.6,1.1C6.9,4.8,6,6,5.9,7.4h7.8C13.6,6,12.7,4.8,11.4,4.2z
	 M8,6.7c-0.4,0-0.6-0.3-0.6-0.6c0-0.4,0.3-0.6,0.6-0.6s0.6,0.3,0.6,0.6C8.7,6.4,8.4,6.7,8,6.7z M11.5,6.7c-0.4,0-0.6-0.3-0.6-0.6
	c0-0.4,0.3-0.6,0.6-0.6s0.6,0.3,0.6,0.6C12.2,6.4,11.9,6.7,11.5,6.7z M7.2,14.4h0.4v1.8C7.6,16.6,8,17,8.5,17c0.5,0,0.9-0.4,0.9-0.9
	v-1.8h0.9v1.8c0,0.5,0.4,0.9,0.9,0.9c0.5,0,0.9-0.4,0.9-0.9v-1.8h0.4c0.7,0,1.3-0.6,1.3-1.3V8.2H5.8v4.8C5.8,13.8,6.4,14.4,7.2,14.4
	z M4.5,12.6c0.5,0,0.9-0.4,0.9-0.9V8.2c0-0.5-0.4-0.9-0.9-0.9C4,7.4,3.7,7.8,3.7,8.2v3.5C3.7,12.2,4,12.6,4.5,12.6z M0,4
	c0-2.2,1.8-4,4-4h12c2.2,0,4,1.8,4,4v12c0,2.2-1.8,4-4,4H4c-2.2,0-4-1.8-4-4V4z"/>
</svg>
