<?xml version="1.0" encoding="utf-8"?>
<!-- Generator: Adobe Illustrator 19.0.0, SVG Export Plug-In . SVG Version: 6.00 Build 0)  -->
<svg version="1.1" id="图层_1" xmlns="http://www.w3.org/2000/svg" xmlns:xlink="http://www.w3.org/1999/xlink" x="0px" y="0px"
	 viewBox="0 0 20 20" style="enable-background:new 0 0 20 20;" xml:space="preserve">
<style type="text/css">
	.st0{fill-rule:evenodd;clip-rule:evenodd;fill:#89919A;}
</style>
<path class="st0" d="M13,9.6c0-1.7,1.3-2.4,1.4-2.5c-0.8-1.1-2-1.3-2.4-1.3c-1-0.1-2,0.6-2.5,0.6C9,6.4,8.2,5.8,7.4,5.8
	c-1.1,0-2.1,0.6-2.7,1.6c-1.2,2-0.3,5,0.8,6.6c0.5,0.8,1.2,1.7,2.1,1.7c0.8,0,1.1-0.5,2.1-0.5s1.3,0.5,2.2,0.5c0.9,0,1.5-0.8,2-1.6
	c0.6-0.9,0.9-1.8,0.9-1.9C14.7,12.2,13,11.6,13,9.6z M11.4,4.7c0.5-0.6,0.8-1.3,0.7-2.1c-0.7,0-1.5,0.4-1.9,1
	c-0.4,0.5-0.8,1.3-0.7,2C10.2,5.7,10.9,5.3,11.4,4.7z M0,4c0-2.2,1.8-4,4-4h12c2.2,0,4,1.8,4,4v12c0,2.2-1.8,4-4,4H4
	c-2.2,0-4-1.8-4-4V4z"/>
</svg>
