<?xml version="1.0" encoding="utf-8"?>
<!-- Generator: Adobe Illustrator 21.0.0, SVG Export Plug-In . SVG Version: 6.00 Build 0)  -->
<svg version="1.1" id="图层_1" xmlns="http://www.w3.org/2000/svg" xmlns:xlink="http://www.w3.org/1999/xlink" x="0px" y="0px"
	 viewBox="0 0 5 8" style="enable-background:new 0 0 5 8;" xml:space="preserve">
<style type="text/css">
	.st0{fill:#4285F4;}
</style>
<g id="首页">
	<g id="首页_初始" transform="translate(-366.000000, -978.000000)">
		<g id="优选项目" transform="translate(190.000000, 968.000000)">
			<path id="箭头" class="st0" d="M176,10h1v1h-1V10z M177,10h1v1h-1V10z M177,11h1v1h-1V11z M178,12h1v1h-1V12z M179,12h1v1h-1
				V12z M179,13h1v1h-1V13z M179,14h1v1h-1V14z M179,15h1v1h-1V15z M178,16h1v1h-1V16z M177,16h1v1h-1V16z M177,17h1v1h-1V17z
				 M176,17h1v1h-1V17z M178,15h1v1h-1V15z M180,13h1v1h-1V13z M180,14h1v1h-1V14z M178,11h1v1h-1V11z"/>
		</g>
	</g>
</g>
</svg>
