<?xml version="1.0" encoding="utf-8"?>
<!-- Generator: Adobe Illustrator 19.0.0, SVG Export Plug-In . SVG Version: 6.00 Build 0)  -->
<svg version="1.1" id="图层_1" xmlns="http://www.w3.org/2000/svg" xmlns:xlink="http://www.w3.org/1999/xlink" x="0px" y="0px"
	 viewBox="0 2 18 18" style="enable-background:new 0 2 18 18;" xml:space="preserve">
<style type="text/css">
	.st0{fill:#969FA9;}
</style>
<path class="st0" d="M13.5,13.1c-0.2,0-0.4-0.1-0.6-0.3L9,8l-3.9,4.9C4.8,13.2,4.4,13.2,4,13c-0.3-0.3-0.4-0.7-0.1-1.1l4.5-5.6
	c0.3-0.4,0.9-0.4,1.2,0l4.5,5.6c0.3,0.3,0.2,0.8-0.1,1.1C13.8,13.1,13.7,13.1,13.5,13.1z"/>
<path class="st0" d="M9,18.7c-0.4,0-0.8-0.3-0.8-0.8V7.5C8.2,7,8.6,6.7,9,6.7S9.8,7,9.8,7.5V18C9.8,18.4,9.4,18.7,9,18.7z"/>
<path class="st0" d="M13.5,4.9h-9c-0.4,0-0.8-0.3-0.8-0.8s0.3-0.8,0.8-0.8h9c0.4,0,0.8,0.3,0.8,0.8S13.9,4.9,13.5,4.9z"/>
</svg>
