<?xml version="1.0" encoding="utf-8"?>
<!-- Generator: Adobe Illustrator 19.0.0, SVG Export Plug-In . SVG Version: 6.00 Build 0)  -->
<svg version="1.1" id="图层_1" xmlns="http://www.w3.org/2000/svg" xmlns:xlink="http://www.w3.org/1999/xlink" x="0px" y="0px"
	 viewBox="0 0 20 20" style="enable-background:new 0 0 20 20;" xml:space="preserve">
<style type="text/css">
	.st0{fill:#969FA9;}
</style>
<path id="path-1_2_" class="st0" d="M9.1,4.5c0.5,0.1,0.8,0.5,0.8,1v2.2v1h1h3.6c0.2,0,0.4,0.1,0.6,0.2c0.1,0.1,0.2,0.4,0.1,0.6
	l-0.8,4.9c-0.1,0.6-0.7,1.1-1.3,1.1H8l-1.1-0.8l-0.3-0.2H6.3H4.5v-4.1C7.8,9.4,8.9,6.9,9.1,4.5 M8.9,3.5H8.1c0,4.7-2.8,5.7-4.6,6
	v5.9h2.8l1.4,1h5.4c1.1,0,2.1-0.9,2.3-2l0.8-4.9c0.2-1.1-0.6-2-1.7-2h-3.6V5.5C10.9,4.4,10,3.5,8.9,3.5L8.9,3.5z"/>
<path class="st0" d="M15.1,10.9h-2.8c-0.3,0-0.5-0.2-0.5-0.5v0c0-0.3,0.2-0.5,0.5-0.5h2.8c0.3,0,0.5,0.2,0.5,0.5v0
	C15.6,10.7,15.4,10.9,15.1,10.9z"/>
<path class="st0" d="M14.8,12.8h-2.5c-0.3,0-0.5-0.2-0.5-0.5l0,0c0-0.3,0.2-0.5,0.5-0.5h2.5c0.3,0,0.5,0.2,0.5,0.5l0,0
	C15.3,12.6,15.1,12.8,14.8,12.8z"/>
<path class="st0" d="M14.4,14.6h-2.1c-0.3,0-0.5-0.2-0.5-0.5l0,0c0-0.3,0.2-0.5,0.5-0.5h2.1c0.3,0,0.5,0.2,0.5,0.5l0,0
	C14.9,14.4,14.7,14.6,14.4,14.6z"/>
</svg>
