<?xml version="1.0" encoding="utf-8"?>
<!-- Generator: Adobe Illustrator 21.0.0, SVG Export Plug-In . SVG Version: 6.00 Build 0)  -->
<svg version="1.1" id="图层_1" xmlns="http://www.w3.org/2000/svg" xmlns:xlink="http://www.w3.org/1999/xlink" x="0px" y="0px"
	 viewBox="0 0 5 8" style="enable-background:new 0 0 5 8;" xml:space="preserve">
<style type="text/css">
	.st0{fill:#4285F4;}
</style>
<g id="首页">
	<g id="首页_初始" transform="translate(-386.000000, -405.000000)">
		<g id="发现新项目" transform="translate(190.000000, 395.000000)">
			<path id="Combined-Shape" class="st0" d="M196,10h1v1h-1V10z M197,10h1v1h-1V10z M197,11h1v1h-1V11z M198,12h1v1h-1V12z M199,12
				h1v1h-1V12z M199,13h1v1h-1V13z M199,14h1v1h-1V14z M199,15h1v1h-1V15z M198,16h1v1h-1V16z M197,16h1v1h-1V16z M197,17h1v1h-1V17
				z M196,17h1v1h-1V17z M198,15h1v1h-1V15z M200,13h1v1h-1V13z M200,14h1v1h-1V14z M198,11h1v1h-1V11z"/>
		</g>
	</g>
</g>
</svg>
