<?xml version="1.0" encoding="utf-8"?>
<!-- Generator: Adobe Illustrator 19.0.0, SVG Export Plug-In . SVG Version: 6.00 Build 0)  -->
<svg version="1.1" id="图层_1" xmlns="http://www.w3.org/2000/svg" xmlns:xlink="http://www.w3.org/1999/xlink" x="0px" y="0px"
	 viewBox="-117 64.4 20 20" style="enable-background:new -117 64.4 20 20;" xml:space="preserve">
<style type="text/css">
	.st0{fill:#5A626D;}
</style>
<path id="Combined-Shape" class="st0" d="M-109.6,71h6.3c0.4,0,0.8,0.3,0.8,0.8c0,0.4-0.3,0.8-0.8,0.8h-6.3l0.5,0.5
	c0.2,0.2,0.2,0.6,0,0.9c-0.2,0.2-0.6,0.2-0.9,0l-2.1-2.1l0.4-0.4l1.7-1.7c0.2-0.2,0.6-0.2,0.9,0c0.2,0.2,0.2,0.6,0,0.9L-109.6,71z
	 M-104.4,76.3l-0.6-0.6c-0.2-0.2-0.2-0.6,0-0.9c0.2-0.2,0.6-0.2,0.9,0l2.1,2.1l0,0l0,0l-2.1,2.1c-0.2,0.2-0.6,0.2-0.9,0
	c-0.2-0.2-0.2-0.6,0-0.9l0.5-0.5h-6.2c-0.4,0-0.8-0.3-0.8-0.8c0-0.4,0.3-0.8,0.8-0.8H-104.4z M-112.2,67.4c-1,0-1.8,0.8-1.8,1.8
	v10.5c0,1,0.8,1.8,1.8,1.8h10.5c1,0,1.8-0.8,1.8-1.8V69.2c0-1-0.8-1.8-1.8-1.8H-112.2z"/>
</svg>
