<?xml version="1.0" encoding="utf-8"?>
<!-- Generator: Adobe Illustrator 19.0.0, SVG Export Plug-In . SVG Version: 6.00 Build 0)  -->
<svg version="1.1" id="图层_1" xmlns="http://www.w3.org/2000/svg" xmlns:xlink="http://www.w3.org/1999/xlink" x="0px" y="0px"
	 viewBox="-117 64.4 20 20" style="enable-background:new -117 64.4 20 20;" xml:space="preserve">
<style type="text/css">
	.st0{fill:#6BA2FC;}
</style>
<path class="st0" d="M-102,79.9c-0.1,0-0.2,0-0.3-0.1l-4.7-3.6l-4.7,3.6c-0.2,0.2-0.5,0.1-0.7-0.1s-0.1-0.5,0.1-0.7l5-3.8
	c0.2-0.1,0.4-0.1,0.6,0l5,3.8c0.2,0.2,0.3,0.5,0.1,0.7C-101.7,79.8-101.9,79.9-102,79.9z"/>
<path class="st0" d="M-102,75.9c-0.1,0-0.2,0-0.3-0.1L-107,72l-4.7,3.8c-0.1,0.1-0.4,0.1-0.5,0.1c-0.2-0.1-0.3-0.3-0.3-0.5v-1.5
	c0-0.2,0.1-0.3,0.2-0.4l5-4c0.2-0.1,0.4-0.1,0.6,0l5,4c0.1,0.1,0.2,0.2,0.2,0.4v1.5c0,0.2-0.1,0.4-0.3,0.5
	C-101.9,75.9-101.9,75.9-102,75.9z"/>
</svg>
