<?xml version="1.0" encoding="utf-8"?>
<!-- Generator: Adobe Illustrator 19.0.0, SVG Export Plug-In . SVG Version: 6.00 Build 0)  -->
<svg version="1.1" id="图层_1" xmlns="http://www.w3.org/2000/svg" xmlns:xlink="http://www.w3.org/1999/xlink" x="0px" y="0px"
	 viewBox="0 0 20 20" style="enable-background:new 0 0 20 20;" xml:space="preserve">
<style type="text/css">
	.st0{fill:#9099A3;}
</style>
<path class="st0" d="M13.5,15.8c-0.2,0-0.5-0.1-0.7-0.2L10,14.1l-2.8,1.5c-0.5,0.3-1,0.3-1.4,0c-0.4-0.3-0.5-0.7-0.4-1.3L6,11.2
	L3.7,9C3.3,8.6,3.2,8.1,3.3,7.7c0.1-0.4,0.5-0.7,1.1-0.8l3.1-0.5l1.4-2.8c0.5-1,1.7-1,2.2,0l1.4,2.8l3.1,0.5c0.6,0.1,1,0.4,1.1,0.8
	c0.1,0.4,0,0.9-0.4,1.3l-2.2,2.2l0.5,3.1c0.1,0.6-0.1,1-0.4,1.3C14,15.7,13.7,15.8,13.5,15.8z M10,12.4l3,1.6l-0.6-3.4l2.4-2.4
	l-3.4-0.5L10,4.7L8.5,7.8L5.1,8.2l2.4,2.4L7,14L10,12.4z"/>
</svg>
