<?xml version="1.0" encoding="utf-8"?>
<!-- Generator: Adobe Illustrator 19.0.0, SVG Export Plug-In . SVG Version: 6.00 Build 0)  -->
<svg version="1.1" id="图层_1" xmlns="http://www.w3.org/2000/svg" xmlns:xlink="http://www.w3.org/1999/xlink" x="0px" y="0px"
	 viewBox="0 0 20 20" style="enable-background:new 0 0 20 20;" xml:space="preserve">
<style type="text/css">
	.st0{fill:#969FA9;}
</style>
<path id="Star" class="st0" d="M10,10.9l-1.1,0.6c-0.5,0.3-0.8,0-0.7-0.5l0.2-1.2L7.5,8.8C7.1,8.4,7.2,8.1,7.8,8L9,7.8l0.5-1.1
	c0.2-0.5,0.6-0.5,0.9,0L11,7.8L12.2,8c0.5,0.1,0.7,0.5,0.3,0.8l-0.9,0.9l0.2,1.2c0.1,0.5-0.2,0.8-0.7,0.5L10,10.9z"/>
<path id="path-1_2_" class="st0" d="M14.5,4.5c0.3,0,0.4,0,0.5,0c0,0.1,0,0.2,0,0.5v10.6l-4.5-2.4c-0.1-0.1-0.3-0.1-0.5-0.1
	s-0.3,0-0.5,0.1L5,15.6V5c0-0.2,0-0.4,0-0.5c0.1,0,0.3,0,0.5,0H14.5 M14.5,3.5H5.5C4.2,3.5,4,3.7,4,5v10.6c0,0.6,0.5,1,1,1
	c0.2,0,0.3,0,0.5-0.1l4.5-2.4l4.5,2.4c0.2,0.1,0.3,0.1,0.5,0.1c0.5,0,1-0.4,1-1V5C16,3.7,15.8,3.5,14.5,3.5L14.5,3.5z"/>
</svg>
