<?xml version="1.0" encoding="utf-8"?>
<!-- Generator: Adobe Illustrator 19.0.0, SVG Export Plug-In . SVG Version: 6.00 Build 0)  -->
<svg version="1.1" id="图层_1" xmlns="http://www.w3.org/2000/svg" xmlns:xlink="http://www.w3.org/1999/xlink" x="0px" y="0px"
	 viewBox="0 0 20 20" style="enable-background:new 0 0 20 20;" xml:space="preserve">
<style type="text/css">
	.st0{fill:#969FA9;}
</style>
<path id="path-1_2_" class="st0" d="M14.5,5C14.8,5,15,5.2,15,5.5v9c0,0.3-0.2,0.5-0.5,0.5h-9C5.2,15,5,14.8,5,14.5v-9
	C5,5.2,5.2,5,5.5,5H14.5 M14.5,4h-9C4.7,4,4,4.7,4,5.5v9C4,15.3,4.7,16,5.5,16h9c0.8,0,1.5-0.7,1.5-1.5v-9C16,4.7,15.3,4,14.5,4
	L14.5,4z"/>
<polygon id="Path_1_" class="st0" points="6.6,9.1 9.6,9.1 9.6,6.6 6.6,6.6 "/>
<polygon id="Path_2_" class="st0" points="10.9,9.1 13.4,9.1 13.4,7.4 10.9,7.4 "/>
<polygon id="Path_3_" class="st0" points="6.6,13.6 13.4,13.6 13.4,12.8 6.6,12.8 "/>
<polygon id="Path_4_" class="st0" points="6.6,11.7 13.4,11.7 13.4,10.9 6.6,10.9 "/>
</svg>
