<?xml version="1.0" encoding="utf-8"?>
<!-- Generator: Adobe Illustrator 19.0.0, SVG Export Plug-In . SVG Version: 6.00 Build 0)  -->
<svg version="1.1" id="图层_1" xmlns="http://www.w3.org/2000/svg" xmlns:xlink="http://www.w3.org/1999/xlink" x="0px" y="0px"
	 viewBox="0 0 20 20" style="enable-background:new 0 0 20 20;" xml:space="preserve">
<style type="text/css">
	.st0{fill:#6BA2FC;}
</style>
<path class="st0" d="M11.2,16.3L11.2,16.3c-0.3,0-0.6-0.2-0.7-0.5L8.6,9.4l-1.4,3.8c-0.1,0.3-0.4,0.5-0.7,0.5
	c-0.3,0-0.6-0.2-0.7-0.4l-1.3-2.8H2c-0.4,0-0.8-0.3-0.8-0.8C1.2,9.3,1.6,9,2,9h3c0.3,0,0.6,0.2,0.7,0.4L6.4,11l1.5-4.2
	c0.1-0.3,0.4-0.5,0.7-0.5c0.3,0,0.6,0.2,0.7,0.5l1.8,6.1l2.6-8.7c0.1-0.3,0.4-0.6,0.8-0.5c0.3,0,0.6,0.3,0.7,0.6L16,9h2
	c0.4,0,0.8,0.3,0.8,0.8c0,0.4-0.3,0.8-0.8,0.8h-2.7c-0.4,0-0.7-0.3-0.7-0.6l-0.3-1.9l-2.4,7.9C11.8,16.1,11.5,16.3,11.2,16.3z"/>
</svg>
