<?xml version="1.0" encoding="utf-8"?>
<!-- Generator: Adobe Illustrator 19.0.0, SVG Export Plug-In . SVG Version: 6.00 Build 0)  -->
<svg version="1.1" id="图层_1" xmlns="http://www.w3.org/2000/svg" xmlns:xlink="http://www.w3.org/1999/xlink" x="0px" y="0px"
	 viewBox="0 0 20 20" style="enable-background:new 0 0 20 20;" xml:space="preserve">
<style type="text/css">
	.st0{fill:#CCCCCC;}
</style>
<path id="Combined-Shape" class="st0" d="M7,5H4v2h12V5h-3V4c0-0.6-0.4-1-1-1H8C7.5,3,7,3.4,7,4V5z"/>
<path id="Combined-Shape_1_" class="st0" d="M12.5,8.5H15V15c0,1.1-0.9,2-2,2H7c-1.1,0-2-0.9-2-2V8.5h2.5v5.3c0,0.4,0.3,0.7,0.8,0.7
	c0.4,0,0.8-0.3,0.8-0.7V8.5h2v5.3c0,0.4,0.3,0.7,0.8,0.7c0.4,0,0.8-0.3,0.8-0.7V8.5z"/>
</svg>
