<?xml version="1.0" encoding="utf-8"?>
<!-- Generator: Adobe Illustrator 19.0.0, SVG Export Plug-In . SVG Version: 6.00 Build 0)  -->
<svg version="1.1" id="图层_1" xmlns="http://www.w3.org/2000/svg" xmlns:xlink="http://www.w3.org/1999/xlink" x="0px" y="0px"
	 viewBox="0 0 20 20" style="enable-background:new 0 0 20 20;" xml:space="preserve">
<style type="text/css">
	.st0{fill:#6BA2FC;}
</style>
<path class="st0" d="M10,3c-3.9,0-7,3.1-7,7s3.1,7,7,7s7-3.1,7-7S13.9,3,10,3z M9.1,5.3c0.3-0.3,0.6-0.4,1-0.4c0.4,0,0.7,0.1,1,0.4
	s0.4,0.6,0.4,1s-0.1,0.7-0.4,1s-0.6,0.4-1,0.4c-0.4,0-0.7-0.1-1-0.4s-0.4-0.6-0.4-1S8.8,5.5,9.1,5.3z M12.6,14.5H7.7v-0.7H9V9.3H7.7
	V8.6h3.6v5.1h1.3V14.5z"/>
</svg>
