<?xml version="1.0" encoding="utf-8"?>
<!-- Generator: Adobe Illustrator 19.0.0, SVG Export Plug-In . SVG Version: 6.00 Build 0)  -->
<svg version="1.1" id="图层_1" xmlns="http://www.w3.org/2000/svg" xmlns:xlink="http://www.w3.org/1999/xlink" x="0px" y="0px"
	 viewBox="0 -8 20 36" style="enable-background:new 0 -8 20 36;" xml:space="preserve">
<style type="text/css">
	.st0{fill:#FBA1B2;}
</style>
<path id="Oval-6" class="st0" d="M14.1-2.9C14.1-5.2,12.2-7,10-7S5.9-5.2,5.9-2.9S7.8,1.1,10,1.1S14.1-0.7,14.1-2.9z M7.8-2.9
	c0-1.2,1-2.2,2.2-2.2s2.2,1,2.2,2.2s-1,2.2-2.2,2.2S7.8-1.7,7.8-2.9z"/>
<path id="Line" class="st0" d="M6.9,5.7c0.5-1,2-1.9,3.1-1.9c1.2,0,2.6,0.9,3.1,1.9l4.2,8.4c0.2,0.4,0.8,0.6,1.2,0.4
	c0.4-0.2,0.6-0.8,0.4-1.2l-4.2-8.4C13.9,3.3,11.8,2,10,2C8.2,2,6.1,3.3,5.3,4.9l-4.2,8.4c-0.2,0.4,0,1,0.4,1.2s1,0,1.2-0.4L6.9,5.7z
	"/>
<path id="Line_1_" class="st0" d="M3.3,17.2c-0.2,0.6,0.2,1.2,0.8,1.2h3.2l-0.9-0.9v8.8c0,0.5,0.4,0.9,0.9,0.9s0.9-0.4,0.9-0.9v-8.8
	c0-0.5-0.4-0.9-0.9-0.9H4.2L5,17.8l3.1-7.3c0.2-0.5-0.1-1-0.5-1.2s-1,0.1-1.2,0.5L3.3,17.2z"/>
<path id="Line_2_" class="st0" d="M15,17.8l0.8-1.2h-3.2c-0.5,0-0.9,0.4-0.9,0.9v8.8c0,0.5,0.4,0.9,0.9,0.9c0.5,0,0.9-0.4,0.9-0.9
	v-8.8l-0.9,0.9h3.2c0.6,0,1.1-0.6,0.8-1.2l-3.1-7.3c-0.2-0.5-0.7-0.7-1.2-0.5c-0.5,0.2-0.7,0.7-0.5,1.2L15,17.8z"/>
</svg>
