<?xml version="1.0" encoding="utf-8"?>
<!-- Generator: Adobe Illustrator 19.0.0, SVG Export Plug-In . SVG Version: 6.00 Build 0)  -->
<svg version="1.1" id="图层_1" xmlns="http://www.w3.org/2000/svg" xmlns:xlink="http://www.w3.org/1999/xlink" x="0px" y="0px"
	 viewBox="0 0 20 20" style="enable-background:new 0 0 20 20;" xml:space="preserve">
<style type="text/css">
	.st0{fill:#969FA9;}
</style>
<path id="path-1_2_" class="st0" d="M15.6,5c0.5,0,0.9,0.3,0.9,0.5v9c0,0.2-0.3,0.5-0.9,0.5H4.4c-0.5,0-0.9-0.3-0.9-0.5v-9
	C3.5,5.3,3.8,5,4.4,5H15.6 M15.6,4H4.4c-1,0-1.9,0.7-1.9,1.5v9c0,0.8,0.8,1.5,1.9,1.5h11.2c1,0,1.9-0.7,1.9-1.5v-9
	C17.5,4.7,16.7,4,15.6,4L15.6,4z"/>
<path id="_x24_" class="st0" d="M9.9,7.4C9.4,7.4,9,7.5,8.7,7.7C8.3,7.9,8.1,8.3,8.1,8.8C8.1,9.3,8.4,9.7,9,10
	c0.3,0.1,0.6,0.2,0.9,0.3v2c-0.3,0-0.6-0.1-0.8-0.3c-0.2-0.2-0.4-0.5-0.4-1H8c0.1,0.6,0.3,1,0.6,1.3c0.3,0.3,0.7,0.4,1.3,0.5v0.6
	h0.4v-0.6c0.5,0,1-0.1,1.3-0.3c0.4-0.3,0.6-0.6,0.6-1.2c0-0.5-0.3-0.9-0.9-1.2c-0.2-0.1-0.5-0.2-1-0.3V7.9c0.3,0,0.5,0.1,0.7,0.2
	c0.2,0.2,0.4,0.4,0.5,0.8h0.7c-0.1-0.5-0.3-0.9-0.6-1.1c-0.3-0.2-0.7-0.3-1.2-0.4V6.8H9.9V7.4z M10.3,10.4c0.1,0,0.2,0.1,0.3,0.1
	c0.6,0.2,0.9,0.5,0.9,0.8c0,0.3-0.1,0.5-0.4,0.7c-0.2,0.1-0.5,0.2-0.9,0.3V10.4z M9.9,9.7L9.7,9.6C9.1,9.4,8.8,9.1,8.8,8.8
	c0-0.3,0.1-0.6,0.4-0.7c0.2-0.1,0.4-0.2,0.7-0.2V9.7z"/>
<rect id="Rectangle-3" x="9.7" y="6.8" class="st0" width="0.3" height="6.7"/>
</svg>
