<?xml version="1.0" encoding="utf-8"?>
<!-- Generator: Adobe Illustrator 19.0.0, SVG Export Plug-In . SVG Version: 6.00 Build 0)  -->
<svg version="1.1" id="图层_1" xmlns="http://www.w3.org/2000/svg" xmlns:xlink="http://www.w3.org/1999/xlink" x="0px" y="0px"
	 viewBox="0 0 20 20" style="enable-background:new 0 0 20 20;" xml:space="preserve">
<style type="text/css">
	.st0{fill:#5A626D;}
</style>
<path id="Rectangle-13-Copy_1_" class="st0" d="M17.6,4.2v11.6c0,0.3,0.2,0.5,0.5,0.5l0,0c0.3,0,0.5-0.2,0.5-0.5V4.4
	c0-0.8-0.7-1.5-1.5-1.5H3.6c-0.3,0-0.5,0.2-0.5,0.5v0.2c0,0.3,0.2,0.5,0.5,0.5L17.6,4.2L17.6,4.2z"/>
<path class="st0" d="M18.1,16.5c-0.5,0-0.8-0.3-0.8-0.7V4.4H3.6c-0.4,0-0.7-0.3-0.7-0.8V3.4c0-0.4,0.3-0.8,0.7-0.8h13.5
	c1,0,1.8,0.8,1.8,1.8v11.4C18.9,16.2,18.5,16.5,18.1,16.5z M3.6,3.2c-0.1,0-0.2,0.1-0.2,0.3v0.2C3.4,3.8,3.5,4,3.6,4h14.2v11.9
	c0,0.1,0.1,0.2,0.3,0.2c0.2,0,0.3-0.1,0.3-0.3V4.4c0-0.7-0.6-1.3-1.3-1.3L3.6,3.2L3.6,3.2z"/>
<path class="st0" d="M8,9.7c0,0.4,0.3,0.7,1,0.9v-2c-0.2,0-0.4,0.1-0.6,0.2C8.2,9,8,9.3,8,9.7z"/>
<path class="st0" d="M10.2,11.6c-0.1,0-0.3-0.1-0.4-0.1v2.2c0.4,0,0.7-0.1,1-0.3s0.4-0.5,0.4-0.8C11.2,12.1,10.8,11.8,10.2,11.6z"/>
<path class="st0" d="M1.5,7.2v8.2c0,0.8,0.7,1.5,1.5,1.5h11.5c0.8,0,1.5-0.7,1.5-1.5V5.7H3C2.2,5.7,1.5,6.4,1.5,7.2z M11.3,13.9
	c-0.4,0.2-0.9,0.4-1.5,0.4V15H9.4l0,0H9v-0.8c-0.5-0.1-0.9-0.2-1.2-0.5c-0.4-0.3-0.6-0.8-0.7-1.5h0.8c0.1,0.5,0.2,0.9,0.5,1.1
	c0.2,0.1,0.4,0.2,0.6,0.3v-2.4C8.7,11.1,8.5,11,8.3,11c-0.7-0.3-1-0.7-1-1.3c0-0.5,0.2-1,0.7-1.3c0.2-0.2,0.6-0.3,1-0.3V7.3h0.3h0.2
	h0.3V8c0.6,0,1,0.2,1.4,0.4c0.4,0.3,0.6,0.7,0.7,1.3h-0.8C11,9.3,10.9,9,10.6,8.8c-0.2-0.2-0.5-0.2-0.8-0.3v2.2
	c0.6,0.2,1,0.3,1.2,0.4c0.7,0.3,1,0.8,1,1.3S11.8,13.6,11.3,13.9z"/>
</svg>
