<?xml version="1.0" encoding="utf-8"?>
<!-- Generator: Adobe Illustrator 19.0.0, SVG Export Plug-In . SVG Version: 6.00 Build 0)  -->
<svg version="1.1" id="图层_1" xmlns="http://www.w3.org/2000/svg" xmlns:xlink="http://www.w3.org/1999/xlink" x="0px" y="0px"
	 viewBox="0 0 20 20" style="enable-background:new 0 0 20 20;" xml:space="preserve">
<style type="text/css">
	.st0{fill:#5A626D;}
</style>
<path class="st0" d="M18,7.5l-2.2-3.6c-0.3-0.5-1-0.9-1.5-0.9H5.7C5.1,3,4.5,3.4,4.2,3.9L2,7.5C1.7,8,1.8,8.7,2.2,9.1l7.2,8.1
	c0.2,0.2,0.4,0.3,0.7,0.3c0.2,0,0.5-0.1,0.7-0.3l7.2-8.1C18.2,8.7,18.3,8,18,7.5z M5.8,5h1.5L6.7,7.5H4.3L5.8,5z M4.7,9h2l1.2,3.6
	L4.7,9z M10,14.1L8.3,9h3.4L10,14.1z M8.3,7.5L8.9,5h2.2l0.7,2.5H8.3z M12.1,12.6L13.3,9h2L12.1,12.6z M13.3,7.5L12.6,5h1.5l1.5,2.5
	H13.3z"/>
</svg>
