<?xml version="1.0" encoding="utf-8"?>
<!-- Generator: Adobe Illustrator 19.0.0, SVG Export Plug-In . SVG Version: 6.00 Build 0)  -->
<svg version="1.1" id="图层_1" xmlns="http://www.w3.org/2000/svg" xmlns:xlink="http://www.w3.org/1999/xlink" x="0px" y="0px"
	 viewBox="0 0 20 20" style="enable-background:new 0 0 20 20;" xml:space="preserve">
<style type="text/css">
	.st0{fill:#969FA9;}
</style>
<path id="Rectangle" class="st0" d="M5,3L5,3c0.6,0,1,0.4,1,1v6c0,0-0.4,0-1,0l0,0c-0.6,0-1,0-1,0V4C4,3.4,4.4,3,5,3z"/>
<path id="Rectangle-Copy-3" class="st0" d="M5,14L5,14c0.6,0,1,0,1,0v2c0,0.6-0.4,1-1,1l0,0c-0.6,0-1-0.4-1-1v-2C4,14,4.4,14,5,14z"
	/>
<path id="path-1_2_" class="st0" d="M5,11c0.6,0,1,0.4,1,1s-0.4,1-1,1s-1-0.4-1-1S4.4,11,5,11 M5,9.5c-1.4,0-2.5,1.1-2.5,2.5
	s1.1,2.5,2.5,2.5s2.5-1.1,2.5-2.5S6.4,9.5,5,9.5L5,9.5z"/>
<path id="path-3_2_" class="st0" d="M15,11c0.6,0,1,0.4,1,1s-0.4,1-1,1c-0.6,0-1-0.4-1-1S14.4,11,15,11 M15,9.5
	c-1.4,0-2.5,1.1-2.5,2.5s1.1,2.5,2.5,2.5s2.5-1.1,2.5-2.5S16.4,9.5,15,9.5L15,9.5z"/>
<path id="Rectangle-Copy" class="st0" d="M15,3L15,3c0.6,0,1,0.4,1,1v6c0,0-0.4,0-1,0l0,0c-0.6,0-1,0-1,0V4C14,3.4,14.4,3,15,3z"/>
<path id="Rectangle-Copy-5" class="st0" d="M15,14L15,14c0.6,0,1,0,1,0v2c0,0.6-0.4,1-1,1l0,0c-0.6,0-1-0.4-1-1v-2
	C14,14,14.4,14,15,14z"/>
<path id="Rectangle-Copy-2" class="st0" d="M10,3L10,3c0.6,0,1,0.4,1,1v2c0,0-0.4,0-1,0l0,0C9.4,6,9,6,9,6V4C9,3.4,9.4,3,10,3z"/>
<path id="Rectangle-Copy-4" class="st0" d="M10,9L10,9c0.6,0,1,0.4,1,1v6c0,0.6-0.4,1-1,1l0,0c-0.6,0-1-0.4-1-1v-6C9,9.4,9.4,9,10,9
	z"/>
<path id="path-5_2_" class="st0" d="M10,7c0.6,0,1,0.4,1,1s-0.4,1-1,1C9.4,9,9,8.6,9,8S9.4,7,10,7 M10,5.5C8.6,5.5,7.5,6.6,7.5,8
	s1.1,2.5,2.5,2.5s2.5-1.1,2.5-2.5S11.4,5.5,10,5.5L10,5.5z"/>
</svg>
