<?xml version="1.0" encoding="utf-8"?>
<!-- Generator: Adobe Illustrator 19.0.0, SVG Export Plug-In . SVG Version: 6.00 Build 0)  -->
<svg version="1.1" id="图层_1" xmlns="http://www.w3.org/2000/svg" xmlns:xlink="http://www.w3.org/1999/xlink" x="0px" y="0px"
	 viewBox="0 0 20 20" style="enable-background:new 0 0 20 20;" xml:space="preserve">
<style type="text/css">
	.st0{fill:#969FA9;}
</style>
<path id="path-1_2_" class="st0" d="M10,5.5c3.9,0,7,3.6,7,4.5s-3.1,4.5-7,4.5c-3.9,0-6.9-3.6-7-4.5C3.1,9.1,6.1,5.5,10,5.5 M10,4.5
	c-4.4,0-8,4.1-8,5.5s3.6,5.5,8,5.5s8-3.9,8-5.5S14.4,4.5,10,4.5L10,4.5z"/>
<path id="Combined-Shape" class="st0" d="M12.9,9.1C13,9.4,13,9.7,13,10c0,1.7-1.3,3-3,3s-3-1.3-3-3s1.3-3,3-3c0.3,0,0.6,0,0.9,0.1
	C10.4,7.4,10,7.9,10,8.5c0,0.8,0.7,1.5,1.5,1.5C12.1,10,12.6,9.6,12.9,9.1z"/>
</svg>
