<?xml version="1.0" encoding="utf-8"?>
<!-- Generator: Adobe Illustrator 19.0.0, SVG Export Plug-In . SVG Version: 6.00 Build 0)  -->
<svg version="1.1" id="图层_1" xmlns="http://www.w3.org/2000/svg" xmlns:xlink="http://www.w3.org/1999/xlink" x="0px" y="0px"
	 viewBox="0 0 20 20" style="enable-background:new 0 0 20 20;" xml:space="preserve">
<style type="text/css">
	.st0{fill:#FFFFFF;}
</style>
<path class="st0" d="M9.2,17c-0.3,0-0.7-0.3-0.7-0.7L8.3,15l-0.6-0.4l-1.3,0.5c-0.3,0.1-0.6,0.1-0.9-0.2l-0.1-0.1l-1.2-2.1
	c-0.2-0.3-0.1-0.7,0.2-1l1.1-0.9v-0.7L4.3,9.4C4.1,9.2,3.9,8.8,4,8.5l0-0.1l1.2-2.1c0.3-0.4,0.7-0.5,1-0.3l1.2,0.5
	C7.8,6.3,8,6.1,8.2,6l0.2-1.4C8.5,4.3,8.8,4,9.2,4l2.5,0l0.1,0c0.2,0,0.4,0.2,0.5,0.3c0.1,0.1,0.1,0.3,0.1,0.4L12.6,6
	c0.2,0.1,0.4,0.2,0.7,0.4l1.3-0.5c0.3-0.1,0.6-0.1,0.9,0.2l0.1,0.1l1.2,2.1c0.2,0.3,0.1,0.8-0.2,1l-1.1,0.9v0.7l1.2,0.8
	c0.3,0.3,0.4,0.7,0.2,1l-1.2,2.1c-0.2,0.3-0.6,0.5-1,0.3l-1.3-0.5c-0.2,0.1-0.4,0.3-0.7,0.4l-0.2,1.3c-0.1,0.4-0.4,0.7-0.8,0.7
	L9.2,17C9.3,17,9.2,17,9.2,17z M7.7,13.5l1.5,0.8L9.5,16l2.1,0l0.3-1.7l0.2-0.1c0.3-0.2,0.7-0.3,1-0.6l0.2-0.2l1.6,0.6l1-1.8l-1.4-1
	V9.7l1.3-1.1l-1-1.7l-1.7,0.7l-0.2-0.2c-0.3-0.2-0.6-0.4-1-0.6l-0.2-0.1L11.4,5L9.4,5L9.1,6.7L8.9,6.8C8.5,7,8.2,7.1,7.9,7.4
	L7.7,7.5L6.1,6.9l-1,1.8l1.4,1v1.7l-1.3,1.1l1,1.7L7.7,13.5z"/>
<path class="st0" d="M10.5,12.8c-1.3,0-2.3-1-2.3-2.3c0-1.3,1-2.3,2.3-2.3c1.3,0,2.3,1,2.3,2.3C12.8,11.8,11.7,12.8,10.5,12.8z
	 M10.5,9.2c-0.7,0-1.3,0.6-1.3,1.3c0,0.7,0.6,1.3,1.3,1.3c0.7,0,1.3-0.6,1.3-1.3C11.8,9.8,11.2,9.2,10.5,9.2z"/>
</svg>
