<?xml version="1.0" encoding="utf-8"?>
<!-- Generator: Adobe Illustrator 19.0.0, SVG Export Plug-In . SVG Version: 6.00 Build 0)  -->
<svg version="1.1" id="图层_1" xmlns="http://www.w3.org/2000/svg" xmlns:xlink="http://www.w3.org/1999/xlink" x="0px" y="0px"
	 viewBox="11 0 42 20" style="enable-background:new 11 0 42 20;" xml:space="preserve">
<style type="text/css">
	.st0{fill:#6BA2FC;}
</style>
<rect x="18.1" y="7.6" class="st0" width="2.2" height="0.9"/>
<rect x="24.5" y="7.8" class="st0" width="0.7" height="2.8"/>
<rect x="40.1" y="7.9" class="st0" width="2.9" height="2.6"/>
<path class="st0" d="M49,2H15c-1.1,0-2,0.9-2,2v12c0,1.1,0.9,2,2,2h34c1.1,0,2-0.9,2-2V4C51,2.9,50.1,2,49,2z M28.4,5.1
	c0.7,0.2,1.3,0.5,1.8,0.8l-0.6,0.8c-0.6-0.4-1.2-0.6-1.8-0.8L28.4,5.1z M19.6,15h-0.8v-1.9h-0.8v-0.8h0.5c-0.1-0.4-0.3-0.8-0.4-1.1
	l0.7-0.2c0.2,0.3,0.3,0.7,0.4,1.2l-0.6,0.2h0.8c0.2-0.4,0.3-0.9,0.5-1.4l0.7,0.2c-0.1,0.4-0.3,0.8-0.4,1.2h0.5v0.8h-0.9V15z
	 M21.7,14.2c0,0.6-0.3,0.9-0.9,0.9H20l-0.3-0.9l0.7,0.1c0.2,0,0.3-0.1,0.3-0.2v-3.3h-3.2v4.5h-0.9V9.8h5V14.2z M17.2,9.3V6.8h4.1
	v2.5H17.2z M21.9,6.3h-5.3V5.4h5.3V6.3z M25.7,15c0-0.2-0.1-0.5-0.1-0.7c-1.1,0.3-2.2,0.5-3.4,0.7l-0.2-1c0.6-0.1,1.1-0.1,1.7-0.2
	v-2.3h-1.5V6.8h1.5V5h1v1.8h1.6v4.6h-1.6v2.2l0.8-0.2c-0.1-0.4-0.2-0.8-0.3-1.2l0.8-0.3c0.3,0.8,0.6,1.7,0.8,2.8L25.7,15z M29.8,7.2
	L30.4,8c-0.6,0.6-1.2,1.1-2,1.6l-0.7-0.8C28.5,8.2,29.2,7.8,29.8,7.2z M29.9,10.8v2.4h-1V9.9h7.2v3.3H35v-2.3H29.9z M28.2,15.1
	l-0.4-0.9c1.7-0.1,2.9-0.4,3.4-0.8c0.5-0.4,0.8-1.2,0.9-2.3l1,0.1c-0.2,1.4-0.5,2.3-1,2.8C31.5,14.6,30.2,15,28.2,15.1z M36.6,15.2
	c-1.3-0.6-2.5-1-3.8-1.4l0.5-0.8c1.4,0.4,2.7,0.8,3.9,1.3L36.6,15.2z M36.9,9.7c-1.6-0.3-2.7-0.9-3.4-1.7c-0.1,0.2-0.2,0.3-0.3,0.4
	c-0.5,0.5-1.4,0.9-2.7,1.2l-0.4-0.9c1-0.2,1.8-0.5,2.2-0.9c0.4-0.3,0.6-0.7,0.7-1.2H32c-0.3,0.4-0.6,0.7-1,1l-0.6-0.8
	c0.7-0.5,1.2-1.1,1.4-1.9l1,0.1c-0.1,0.2-0.1,0.4-0.2,0.6h4.3v0.6c-0.1,0.5-0.3,1.1-0.5,1.6l-1-0.3c0.2-0.3,0.3-0.6,0.4-1h-1.6
	c0,0.2-0.1,0.4-0.2,0.6c0.6,0.8,1.7,1.3,3.3,1.6L36.9,9.7z M48,12.2h-1v-0.6H44v3.7H43v-3.7h-2.9v0.6h-1V6.8H43V4.9H44v1.9H48V12.2z
	"/>
<rect x="44" y="7.9" class="st0" width="2.9" height="2.6"/>
<rect x="23" y="7.8" class="st0" width="0.7" height="2.8"/>
</svg>
