<?xml version="1.0" encoding="utf-8"?>
<!-- Generator: Adobe Illustrator 19.0.0, SVG Export Plug-In . SVG Version: 6.00 Build 0)  -->
<svg version="1.1" id="图层_1" xmlns="http://www.w3.org/2000/svg" xmlns:xlink="http://www.w3.org/1999/xlink" x="0px" y="0px"
	 viewBox="0 0 20 20" style="enable-background:new 0 0 20 20;" xml:space="preserve">
<style type="text/css">
	.st0{fill:#5A626D;}
	.st1{fill:#FFFFFF;}
</style>
<path id="Rectangle-13" class="st0" d="M3,5.7h13v11.2H3c-0.8,0-1.5-0.7-1.5-1.5V7.2C1.5,6.3,2.2,5.7,3,5.7z"/>
<path class="st0" d="M18.1,16.5c-0.5,0-0.8-0.3-0.8-0.7V4.4H3.6c-0.4,0-0.7-0.3-0.7-0.8V3.4c0-0.4,0.3-0.8,0.7-0.8h13.5
	c1,0,1.8,0.8,1.8,1.8v11.4C18.9,16.2,18.5,16.5,18.1,16.5z"/>
<path id="_x24_" class="st1" d="M9.3,8c-0.6,0-1,0.2-1.4,0.4C7.4,8.7,7.2,9.1,7.2,9.7c0,0.6,0.3,1,1,1.3c0.3,0.1,0.7,0.2,1,0.3v2.3
	c-0.4,0-0.7-0.2-0.9-0.3c-0.3-0.2-0.4-0.6-0.5-1.1H7.1c0.1,0.7,0.3,1.2,0.7,1.5c0.4,0.3,0.8,0.5,1.5,0.5V15h0.5v-0.7
	c0.6,0,1.1-0.2,1.5-0.4c0.5-0.3,0.7-0.7,0.7-1.3c0-0.6-0.4-1-1-1.3c-0.2-0.1-0.6-0.2-1.2-0.4V8.6c0.3,0,0.6,0.1,0.8,0.3
	c0.3,0.2,0.4,0.5,0.5,0.9h0.8c-0.1-0.6-0.3-1-0.7-1.3C10.8,8.2,10.3,8,9.8,8V7.3H9.3V8z M9.8,11.5c0.1,0,0.3,0.1,0.4,0.1
	c0.7,0.2,1,0.5,1,1c0,0.4-0.1,0.6-0.4,0.8c-0.3,0.2-0.6,0.3-1,0.3V11.5z M9.3,10.6L9,10.6C8.3,10.3,8,10,8,9.7C8,9.3,8.2,9,8.4,8.8
	c0.2-0.1,0.5-0.2,0.8-0.2V10.6z"/>
<rect id="Rectangle-3" x="9" y="7.3" class="st1" width="0.4" height="7.7"/>
</svg>
