<?xml version="1.0" encoding="utf-8"?>
<!-- Generator: Adobe Illustrator 19.0.0, SVG Export Plug-In . SVG Version: 6.00 Build 0)  -->
<svg version="1.1" id="图层_1" xmlns="http://www.w3.org/2000/svg" xmlns:xlink="http://www.w3.org/1999/xlink" x="0px" y="0px"
	 viewBox="0 0 20 20" style="enable-background:new 0 0 20 20;" xml:space="preserve">
<style type="text/css">
	.st0{fill:#5A626D;}
</style>
<path id="path-1_2_" class="st0" d="M14.2,5L16,8.1L10,15L4,8.1L5.8,5H14.2 M14.3,3H5.7C5.1,3,4.5,3.4,4.2,3.9L2,7.5
	C1.7,8,1.8,8.7,2.2,9.1l7.2,8.1c0.2,0.2,0.4,0.3,0.7,0.3c0.2,0,0.5-0.1,0.7-0.3l7.2-8.1C18.2,8.7,18.3,8,18,7.5l-2.2-3.6
	C15.5,3.4,14.9,3,14.3,3L14.3,3z"/>
<path class="st0" d="M10,17.2c-0.3,0-0.6-0.2-0.7-0.5l-2.7-8C6.5,8.3,6.7,7.9,7.1,7.8c0.4-0.1,0.8,0.1,0.9,0.5l1.9,5.9l1.9-5.9
	c0.1-0.4,0.6-0.6,0.9-0.5c0.4,0.1,0.6,0.6,0.5,0.9l-2.7,8C10.6,17,10.3,17.2,10,17.2z"/>
<path class="st0" d="M7.3,8.8c-0.1,0-0.1,0-0.2,0C6.8,8.6,6.5,8.2,6.6,7.8l1.1-4c0.1-0.4,0.5-0.6,0.9-0.5C9,3.4,9.2,3.8,9.1,4.2
	l-1.1,4C8,8.5,7.7,8.8,7.3,8.8z"/>
<path class="st0" d="M12.7,8.8c-0.3,0-0.6-0.2-0.7-0.6l-1.1-4c-0.1-0.4,0.1-0.8,0.5-0.9c0.4-0.1,0.8,0.1,0.9,0.5l1.1,4
	c0.1,0.4-0.1,0.8-0.5,0.9C12.8,8.7,12.7,8.8,12.7,8.8z"/>
<rect id="Rectangle-2" x="2.6" y="7.5" class="st0" width="14.9" height="1.5"/>
</svg>
