<?xml version="1.0" encoding="utf-8"?>
<!-- Generator: Adobe Illustrator 19.0.0, SVG Export Plug-In . SVG Version: 6.00 Build 0)  -->
<svg version="1.1" id="图层_1" xmlns="http://www.w3.org/2000/svg" xmlns:xlink="http://www.w3.org/1999/xlink" x="0px" y="0px"
	 viewBox="0 0 20 20" style="enable-background:new 0 0 20 20;" xml:space="preserve">
<style type="text/css">
	.st0{fill:#5A626D;}
</style>
<path class="st0" d="M18,7.5l-2.2-3.6C15.5,3.4,14.9,3,14.3,3H5.7C5.1,3,4.5,3.4,4.2,3.9L2,7.5C1.7,8,1.8,8.7,2.2,9.1l7.2,8.1
	c0.2,0.2,0.4,0.3,0.7,0.3c0.2,0,0.5-0.1,0.7-0.3L18,9.1C18.2,8.7,18.3,8,18,7.5z M5.8,5h1.6L6.7,7.5H4.3L5.8,5z M4.8,9h1.9l1.2,3.6
	L4.8,9z M8.9,5h2.2l0.7,2.5H8.2L8.9,5z M9.9,14.2L8.2,9h3.3L9.9,14.2z M11.8,13l1.3-4h2.1L11.8,13z M13.3,7.5L12.6,5h1.6l1.5,2.5
	H13.3z"/>
</svg>
