<?xml version="1.0" encoding="utf-8"?>
<!-- Generator: Adobe Illustrator 19.0.0, SVG Export Plug-In . SVG Version: 6.00 Build 0)  -->
<svg version="1.1" id="图层_1" xmlns="http://www.w3.org/2000/svg" xmlns:xlink="http://www.w3.org/1999/xlink" x="0px" y="0px"
	 viewBox="0 0 20 20" style="enable-background:new 0 0 20 20;" xml:space="preserve">
<style type="text/css">
	.st0{fill:#949DA7;}
</style>
<path class="st0" d="M16.4,8.8L10,4.6L3.6,8.8C3.1,9.1,2.5,9,2.2,8.5S2,7.4,2.5,7.1l6.4-4.3c0.7-0.5,1.6-0.5,2.3,0l6.4,4.3
	c0.5,0.3,0.6,1,0.3,1.4C17.5,9,16.9,9.1,16.4,8.8"/>
<path class="st0" d="M10,5.9l-6.5,4.4v4.6c0,1.2,0.9,2.1,2.1,2.1h3.1v-3.8h2.6V17h3.1c1.2,0,2.1-0.9,2.1-2.1v-4.6L10,5.9z"/>
<rect x="12.6" y="2" class="st0" width="2.6" height="3.9"/>
</svg>
