<?xml version="1.0" encoding="utf-8"?>
<!-- Generator: Adobe Illustrator 19.0.0, SVG Export Plug-In . SVG Version: 6.00 Build 0)  -->
<svg version="1.1" id="图层_1" xmlns="http://www.w3.org/2000/svg" xmlns:xlink="http://www.w3.org/1999/xlink" x="0px" y="0px"
	 viewBox="0 0 20 20" style="enable-background:new 0 0 20 20;" xml:space="preserve">
<style type="text/css">
	.st0{fill:#969FA9;}
</style>
<path class="st0" d="M14,16.4H6c-0.8,0-1.5-0.7-1.5-1.5V8.5h1v6.4c0,0.3,0.2,0.5,0.5,0.5h8c0.3,0,0.5-0.2,0.5-0.5V8.5h1v6.4
	C15.5,15.7,14.8,16.4,14,16.4z"/>
<path id="path-1_2_" class="st0" d="M10.9,11.5V15H9.1v-3.5H10.9 M11.9,10.5H8.1V16h3.7V10.5L11.9,10.5z"/>
<path id="Rectangle-3" class="st0" d="M12.8,4.7c0-0.4,0.3-0.7,0.7-0.7l0,0c0.4,0,0.7,0.3,0.7,0.7v3.2L12.8,7V4.7z"/>
<path class="st0" d="M16.5,10.5c-0.1,0-0.2,0-0.3-0.1L10,4.7l-6.2,5.7c-0.2,0.2-0.5,0.2-0.7,0c-0.2-0.2-0.2-0.5,0-0.7l6.5-6
	c0.2-0.2,0.5-0.2,0.7,0l6.5,6c0.2,0.2,0.2,0.5,0,0.7C16.8,10.4,16.6,10.5,16.5,10.5z"/>
</svg>
