<?xml version="1.0" encoding="utf-8"?>
<!-- Generator: Adobe Illustrator 19.0.0, SVG Export Plug-In . SVG Version: 6.00 Build 0)  -->
<svg version="1.1" id="图层_1" xmlns="http://www.w3.org/2000/svg" xmlns:xlink="http://www.w3.org/1999/xlink" x="0px" y="0px"
	 viewBox="0 0 20 20" style="enable-background:new 0 0 20 20;" xml:space="preserve">
<style type="text/css">
	.st0{fill:#F8627E;}
</style>
<path class="st0" d="M16,2H4C2.9,2,2,2.9,2,4v12c0,1.1,0.9,2,2,2h12c1.1,0,2-0.9,2-2V4C18,2.9,17.1,2,16,2z M5.8,15.2l-0.9-0.6
	c0.5-0.5,1-1.2,1.3-2L7.2,13C6.8,13.9,6.3,14.6,5.8,15.2z M7.7,11.3c0,0.7-0.3,1.1-1,1.1h-1l-0.2-1c0.3,0,0.6,0.1,0.9,0.1
	c0.2,0,0.3-0.1,0.3-0.4V9.9c-0.5,0.1-1,0.2-1.5,0.3l-0.2-1C5.5,9.2,6.1,9.1,6.6,9V7.3H5.1v-1h1.5V5h1v1.3h1.3v1H7.7v1.4
	c0.4-0.1,0.8-0.2,1.2-0.4v1C8.4,9.5,8.1,9.6,7.7,9.7V11.3z M8.5,15.2c-0.1-0.8-0.3-1.5-0.5-2.1l1-0.2c0.2,0.6,0.4,1.3,0.6,2
	L8.5,15.2z M11,15.2c-0.2-0.8-0.5-1.6-0.8-2.2l1-0.2c0.3,0.7,0.6,1.4,0.8,2.2L11,15.2z M13.9,15.2c-0.4-0.7-0.9-1.4-1.5-2.2l0.8-0.5
	c0.7,0.8,1.2,1.5,1.5,2.1L13.9,15.2z M14.8,12c-0.1,0.2-0.3,0.3-0.5,0.3c-0.4,0-0.7-0.2-1-0.5c-0.5-0.5-0.7-1.6-0.7-3.3V7.3h-1.2
	c0,0.8-0.1,1.5-0.3,2.1c0.5,0.4,0.9,0.7,1.4,1.2l-0.6,0.9c-0.4-0.4-0.7-0.7-1.1-1c-0.4,0.8-0.9,1.4-1.5,1.9l-0.8-0.7
	c0.6-0.5,1.1-1.1,1.5-1.9C9.6,9.6,9.3,9.4,9,9.2l0.6-0.8c0.2,0.1,0.5,0.3,0.7,0.4c0.1-0.5,0.1-1,0.2-1.5H9.3v-1h1.2V5h1v1.4h2.2v2.2
	c0,1.2,0.1,2,0.3,2.5c0.1,0.2,0.1,0.3,0.2,0.3c0.1,0,0.1-0.2,0.2-0.5c0-0.3,0.1-0.6,0.1-1.1l0.8,0.4C15.1,11.1,15,11.8,14.8,12z"/>
</svg>
