<?xml version="1.0" encoding="utf-8"?>
<!-- Generator: Adobe Illustrator 19.0.0, SVG Export Plug-In . SVG Version: 6.00 Build 0)  -->
<svg version="1.1" id="图层_1" xmlns="http://www.w3.org/2000/svg" xmlns:xlink="http://www.w3.org/1999/xlink" x="0px" y="0px"
	 viewBox="0 4 13 16" style="enable-background:new 0 4 13 16;" xml:space="preserve">
<style type="text/css">
	.st0{fill-rule:evenodd;clip-rule:evenodd;fill:#969FA9;}
</style>
<path class="st0" d="M7.6,5C7.9,6.1,8,7.2,8,8.3c0,1.4-1,2.6-2.3,2.6c-1.4,0-2.5-1.2-2.5-2.6V8.1C1.8,9.8,1,11.9,1,14.2
	c0,3,2.5,5.5,5.5,5.5s5.5-2.5,5.5-5.5C12,10.6,10.4,7.2,7.6,5 M6.5,17.5c-1.2,0-2.2-0.9-2.2-2.1c0,0,0,0,0,0c0-1.1,0.7-1.9,1.9-2.1
	c1.2-0.2,2.5-0.8,3.2-1.8c0.3,0.9,0.4,1.8,0.4,2.8C9.8,16,8.3,17.5,6.5,17.5"/>
</svg>
