<?xml version="1.0" encoding="utf-8"?>
<!-- Generator: Adobe Illustrator 19.0.0, SVG Export Plug-In . SVG Version: 6.00 Build 0)  -->
<svg version="1.1" id="图层_1" xmlns="http://www.w3.org/2000/svg" xmlns:xlink="http://www.w3.org/1999/xlink" x="0px" y="0px"
	 viewBox="-3 3 13 16" style="enable-background:new -3 3 13 16;" xml:space="preserve">
<style type="text/css">
	.st0{fill:#969FA9;}
</style>
<path class="st0" d="M4.6,3.6C4.9,4.7,5,5.8,5,6.9c0,1.4-1,2.6-2.3,2.6c-1.4,0-2.5-1.2-2.5-2.6V6.8C-1.2,8.4-2,10.5-2,12.8
	c0,3,2.5,5.5,5.5,5.5S9,15.9,9,12.9C9,9.2,7.4,5.8,4.6,3.6 M3.5,16.1c-1.2,0-2.2-0.9-2.2-2.1l0,0c0-1.1,0.7-1.9,1.9-2.1
	c1.2-0.2,2.5-0.8,3.2-1.8c0.3,0.9,0.4,1.8,0.4,2.8C6.8,14.6,5.3,16.1,3.5,16.1"/>
</svg>
