<?xml version="1.0" encoding="utf-8"?>
<!-- Generator: Adobe Illustrator 19.0.0, SVG Export Plug-In . SVG Version: 6.00 Build 0)  -->
<svg version="1.1" id="图层_1" xmlns="http://www.w3.org/2000/svg" xmlns:xlink="http://www.w3.org/1999/xlink" x="0px" y="0px"
	 viewBox="0 0 20 20" style="enable-background:new 0 0 20 20;" xml:space="preserve">
<style type="text/css">
	.st0{clip-path:url(#SVGID_2_);fill:#969FA9;}
	.st1{clip-path:url(#SVGID_4_);fill:#969FA9;}
	.st2{clip-path:url(#SVGID_6_);fill:#969FA9;}
</style>
<title>Icon/BP white</title>
<desc>Created with Sketch.</desc>
<g>
	<defs>
		<path id="SVGID_1_" d="M3,5c0-1.1,0.9-2,2-2h6c1.1,0,2,0.9,2,2v12h-2.5V6H9v11H7V6H5.5v11H3V5z"/>
	</defs>
	<clipPath id="SVGID_2_">
		<use xlink:href="#SVGID_1_"  style="overflow:visible;"/>
	</clipPath>
	<rect x="-2" y="-2" class="st0" width="20" height="24"/>
</g>
<g>
	<defs>
		<path id="SVGID_3_" d="M11.7,8H15c1.1,0,2,0.9,2,2v6h-2.5v-5H13v5h-1.3V8z"/>
	</defs>
	<clipPath id="SVGID_4_">
		<use xlink:href="#SVGID_3_"  style="overflow:visible;"/>
	</clipPath>
	<rect x="6.7" y="3" class="st1" width="15.3" height="18"/>
</g>
<g>
	<defs>
		<path id="SVGID_5_" d="M2,16c0-0.6,0.4-1,1-1h14c0.6,0,1,0.4,1,1c0,0.6-0.4,1-1,1H3C2.4,17,2,16.6,2,16z"/>
	</defs>
	<clipPath id="SVGID_6_">
		<use xlink:href="#SVGID_5_"  style="overflow:visible;"/>
	</clipPath>
	<rect x="-3" y="10" class="st2" width="26" height="12"/>
</g>
</svg>
