<?xml version="1.0" encoding="utf-8"?>
<!-- Generator: Adobe Illustrator 19.0.0, SVG Export Plug-In . SVG Version: 6.00 Build 0)  -->
<svg version="1.1" id="图层_1" xmlns="http://www.w3.org/2000/svg" xmlns:xlink="http://www.w3.org/1999/xlink" x="0px" y="0px"
	 viewBox="0 0 20 20" style="enable-background:new 0 0 20 20;" xml:space="preserve">
<style type="text/css">
	.st0{fill:#969FA9;}
</style>
<path class="st0" d="M3,5c0-1.1,0.9-2,2-2h6c1.1,0,2,0.9,2,2v12h-2.5V6H9v11H7V6H5.5v11H3V5z"/>
<path class="st0" d="M11.7,8H15c1.1,0,2,0.9,2,2v6h-2.5v-5H13v5h-1.3V8z"/>
<path class="st0" d="M2,16c0-0.6,0.4-1,1-1h14c0.6,0,1,0.4,1,1s-0.4,1-1,1H3C2.4,17,2,16.6,2,16z"/>
</svg>
