<?xml version="1.0" encoding="utf-8"?>
<!-- Generator: Adobe Illustrator 19.0.0, SVG Export Plug-In . SVG Version: 6.00 Build 0)  -->
<svg version="1.1" id="图层_1" xmlns="http://www.w3.org/2000/svg" xmlns:xlink="http://www.w3.org/1999/xlink" x="0px" y="0px"
	 viewBox="0 0 20 20" style="enable-background:new 0 0 20 20;" xml:space="preserve">
<style type="text/css">
	.st0{fill:#969FA9;}
</style>
<path id="Rectangle-2" class="st0" d="M3.4,15.4h13.1c0.2,0,0.4,0.2,0.4,0.4l0,0c0,0.2-0.2,0.4-0.4,0.4H3.4C3.2,16.2,3,16,3,15.8
	l0,0C3,15.6,3.2,15.4,3.4,15.4z"/>
<path id="path-1_2_" class="st0" d="M10,5c0.6,0,1,0.4,1,1v9.2H4.7V6c0-0.6,0.4-1,1-1H10 M10,4H5.7c-1.1,0-2,0.9-2,2v10.2H12V6
	C12,4.9,11.1,4,10,4L10,4z"/>
<path id="path-3_2_" class="st0" d="M15.3,9.3v5.9h-3.2V9.3H15.3 M15.3,8.3H11v7.9h5.2V9.3C16.3,8.7,15.9,8.3,15.3,8.3L15.3,8.3z"/>
<rect id="Rectangle-4" x="5.8" y="6.6" class="st0" width="1.3" height="8.8"/>
<rect id="Rectangle-4_1_" x="8.5" y="6.6" class="st0" width="1.3" height="8.8"/>
<rect id="Rectangle-4_2_" x="13.1" y="11" class="st0" width="1.3" height="4.4"/>
</svg>
