<?xml version="1.0" encoding="utf-8"?>
<!-- Generator: Adobe Illustrator 19.0.0, SVG Export Plug-In . SVG Version: 6.00 Build 0)  -->
<svg version="1.1" id="图层_1" xmlns="http://www.w3.org/2000/svg" xmlns:xlink="http://www.w3.org/1999/xlink" x="0px" y="0px"
	 viewBox="0 0 20 20" style="enable-background:new 0 0 20 20;" xml:space="preserve">
<style type="text/css">
	.st0{clip-path:url(#SVGID_2_);fill:#969FA9;}
	.st1{clip-path:url(#SVGID_4_);fill:#969FA9;}
</style>
<g>
	<defs>
		<path id="SVGID_1_" d="M13.6,6.6c0,2-1.6,3.6-3.5,3.6S6.5,8.5,6.5,6.6c0-2,1.6-3.6,3.5-3.6S13.6,4.6,13.6,6.6"/>
	</defs>
	<clipPath id="SVGID_2_">
		<use xlink:href="#SVGID_1_"  style="overflow:visible;"/>
	</clipPath>
	<rect x="1.5" y="-2" class="st0" width="17.1" height="17.1"/>
</g>
<g>
	<defs>
		<path id="SVGID_3_" d="M8.5,17l1.2-1.8c0.2-0.2,0.4-0.2,0.6,0l1.2,1.8H8.5z M9.6,14.4l-1-1.4c-0.2-0.3-0.1-0.5,0.2-0.5h2.4
			c0.3,0,0.4,0.2,0.2,0.5l-1,1.4C10.2,14.6,9.8,14.6,9.6,14.4z M3,15.1v0.5C3,16.4,3.6,17,4.4,17h11.2c0.8,0,1.4-0.6,1.4-1.4v-0.5
			c0-0.6-0.2-1.1-0.6-1.5C14.8,12,12.5,11,10,11s-4.8,1-6.4,2.6C3.2,14,3,14.6,3,15.1z"/>
	</defs>
	<clipPath id="SVGID_4_">
		<use xlink:href="#SVGID_3_"  style="overflow:visible;"/>
	</clipPath>
	<rect x="-2" y="6" class="st1" width="24" height="16"/>
</g>
</svg>
