<?xml version="1.0" encoding="utf-8"?>
<!-- Generator: Adobe Illustrator 19.0.0, SVG Export Plug-In . SVG Version: 6.00 Build 0)  -->
<svg version="1.1" id="图层_1" xmlns="http://www.w3.org/2000/svg" xmlns:xlink="http://www.w3.org/1999/xlink" x="0px" y="0px"
	 viewBox="0 0 20 20" style="enable-background:new 0 0 20 20;" xml:space="preserve">
<style type="text/css">
	.st0{fill:#949DA7;}
	.st1{fill:#969FA9;}
</style>
<path class="st0" d="M7.5,9h7V5.5h-7V9z M5,5c0-1.1,0.9-2,2-2h8c1.1,0,2,0.9,2,2v10c0,1.1-0.9,2-2,2H5V5z M7.5,12h7v-1h-7V12z
	 M7.5,14.5h4v-1h-4V14.5z"/>
<path class="st1" d="M6.5,17H5c-1.4,0-2.5-1.1-2.5-2.5V8h4.1v1.5H4v5c0,0.6,0.5,1,1,1h1.5V17z"/>
</svg>
