<?xml version="1.0" encoding="utf-8"?>
<!-- Generator: Adobe Illustrator 19.0.0, SVG Export Plug-In . SVG Version: 6.00 Build 0)  -->
<svg version="1.1" id="图层_1" xmlns="http://www.w3.org/2000/svg" xmlns:xlink="http://www.w3.org/1999/xlink" x="0px" y="0px"
	 viewBox="5 0 30 20" style="enable-background:new 5 0 30 20;" xml:space="preserve">
<style type="text/css">
	.st0{fill:#5A626D;}
</style>
<path id="Fill-1" class="st0" d="M32.3,7.6c-0.8,0-1.6,0.2-2.2,0.5V7.7h-2c-0.3,0-0.6,0.3-0.6,0.6v8.9h2.6v-4.7l0,0
	c0-0.9,0.5-1.6,1.2-2.1c0.4-0.2,0.8-0.3,1.2-0.3c0.2,0,0.3,0,0.5,0V7.6C32.7,7.6,32.5,7.6,32.3,7.6"/>
<path id="Fill-3" class="st0" d="M26.3,3.4h-2.2c-0.2,0-0.5,0.1-0.5,0.4l0,0l-3.5,7.6v-8h-2c-0.3,0-0.6,0.3-0.6,0.6v12.5
	c0,0.3,0.3,0.6,0.6,0.6h0.4h1.6L22,13l1.9,4.1h2.6l-3.2-6.9L26.3,3.4z"/>
<path id="Fill-9" class="st0" d="M15.4,7.7v2.1h-2.1l0,0V7.7H15.4z M13,3.4L13,3.4h-0.2c-0.3,0-0.6,0.3-0.6,0.6v5.7l0,0v0.5
	c0,0.3,0.3,0.6,0.6,0.6h2.5h1v-1V7.7V6.6l0,0h-3.1V4.5h3.1V3.4l0,0H13z"/>
<path id="Fill-6" class="st0" d="M11.2,4c0-0.3-0.3-0.6-0.6-0.6h-0.2h-0.1H7.7l0,0H7l0,0v1.1h0.7h2.4v2.1H7v1.1h3.1v2.1l0,0H7v1.1
	h3.6c0.3,0,0.6-0.3,0.6-0.6V9.8l0,0C11.2,9.8,11.2,4,11.2,4z"/>
</svg>
