<?xml version="1.0" encoding="utf-8"?>
<!-- Generator: Adobe Illustrator 19.0.0, SVG Export Plug-In . SVG Version: 6.00 Build 0)  -->
<svg version="1.1" id="图层_1" xmlns="http://www.w3.org/2000/svg" xmlns:xlink="http://www.w3.org/1999/xlink" x="0px" y="0px"
	 viewBox="7 -2 34 24" style="enable-background:new 7 -2 34 24;" xml:space="preserve">
<style type="text/css">
	.st0{fill:#969FA9;}
</style>
<path id="Fill-1" class="st0" d="M38.2,7.3c-0.9,0-1.8,0.2-2.6,0.6V7.4h-2.4c-0.4,0-0.7,0.3-0.7,0.7v10.2h3v-5.4v0
	c0-1,0.5-1.9,1.4-2.4c0.4-0.2,0.9-0.4,1.4-0.4c0.2,0,0.4,0,0.5,0.1V7.4C38.7,7.3,38.5,7.3,38.2,7.3"/>
<path id="Fill-3" class="st0" d="M31.3,2.5h-2.6c-0.3,0-0.5,0.2-0.6,0.4l0,0l-4,8.8V2.5h-2.3c-0.4,0-0.7,0.3-0.7,0.7v14.4
	c0,0.4,0.3,0.7,0.7,0.7h0.5h1.9l2.1-4.7l2.2,4.7h3l-3.7-7.9L31.3,2.5z"/>
<path id="Fill-9" class="st0" d="M18.6,7.4v2.4h-2.4h0V7.4H18.6z M16,2.5L16,2.5h-0.2c-0.4,0-0.7,0.3-0.7,0.7v6.6l0,0v0.5
	c0,0.4,0.3,0.7,0.7,0.7h2.9h1.2V9.8V7.4V6.2v0h-3.6l0-2.4h3.6V2.5h0H16z"/>
<path id="Fill-6" class="st0" d="M13.8,3.2c0-0.4-0.3-0.7-0.7-0.7h-0.2h-0.1H9.8l0,0H9l0,0v1.2h0.8h2.8l0,2.4H9v1.2h3.6v2.4h0H9V11
	h4.1c0.4,0,0.7-0.3,0.7-0.7V9.8l0,0V3.2z"/>
</svg>
