<?xml version="1.0" encoding="utf-8"?>
<!-- Generator: Adobe Illustrator 19.0.0, SVG Export Plug-In . SVG Version: 6.00 Build 0)  -->
<svg version="1.1" id="图层_1" xmlns="http://www.w3.org/2000/svg" xmlns:xlink="http://www.w3.org/1999/xlink" x="0px" y="0px"
	 viewBox="-2 4 14 14" style="enable-background:new -2 4 14 14;" xml:space="preserve">
<style type="text/css">
	.st0{fill:#969FA9;}
</style>
<path class="st0" d="M10.6,9.2L9.1,6.6C8.9,6.3,8.4,6,8,6H2C1.6,6,1.1,6.3,0.9,6.6l-1.5,2.6c-0.2,0.3-0.2,0.8,0.1,1.1l5.1,5.7
	c0.3,0.3,0.7,0.3,0.9,0l5.1-5.7C10.8,10,10.8,9.5,10.6,9.2z M2,7.4h1.2L2.7,9.2H1L2,7.4z M1.3,10.2h1.4l0.8,2.6L1.3,10.2z M5,13.9
	l-1.2-3.6h2.4L5,13.9z M3.8,9.2l0.5-1.8h1.5l0.5,1.8H3.8z M6.5,12.8l0.8-2.6h1.4L6.5,12.8z M7.3,9.2L6.9,7.4h1.1L9,9.2H7.3z"/>
</svg>
