<?xml version="1.0" encoding="utf-8"?>
<!-- Generator: Adobe Illustrator 19.0.0, SVG Export Plug-In . SVG Version: 6.00 Build 0)  -->
<svg version="1.1" id="图层_1" xmlns="http://www.w3.org/2000/svg" xmlns:xlink="http://www.w3.org/1999/xlink" x="0px" y="0px"
	 viewBox="7 0 34 20" style="enable-background:new 7 0 34 20;" xml:space="preserve">
<style type="text/css">
	.st0{fill:#6BA2FC;}
</style>
<path id="行业" class="st0" d="M18.2,5.7v0.9h4.9V5.7H18.2z M18,8.2v0.9h3v4c0,0.2-0.1,0.3-0.4,0.3c-0.4,0-0.9,0-1.3-0.1l0.2,0.9
	h1.5c0.7,0,1.1-0.3,1.1-1V9.2h1.6V8.2H18z M16.5,5.2C16,6.2,15.3,7,14.4,7.7l0.3,1c1.3-0.9,2.2-1.9,2.7-3L16.5,5.2z M17,7.5
	c-0.5,1.1-1.4,2-2.5,2.8l0.3,0.9c0.4-0.3,0.8-0.6,1.2-0.9v4h0.9V9.5c0.4-0.5,0.8-1,1-1.5L17,7.5z M27.4,5.3v7.9h-2.9v0.9h8.9v-0.9
	h-2.9V5.3h-1v7.9h-1.2V5.3H27.4z M32.4,7.1c-0.4,1.8-0.9,3.3-1.5,4.4l0.9,0.3c0.6-1.3,1.1-2.8,1.5-4.5L32.4,7.1z M25.5,7.1l-0.8,0.3
	c0.5,1.5,1,3,1.3,4.5l0.9-0.2C26.5,10,26.1,8.4,25.5,7.1L25.5,7.1z"/>
<path id="Rectangle-11" class="st0" d="M10,16c0,0.5,0.4,1,1,1h26c0.5,0,1-0.4,1-1V4c0-0.5-0.4-1-1-1H11c-0.5,0-1,0.4-1,1V16z M11,2
	h26c1.1,0,2,0.9,2,2v12c0,1.1-0.9,2-2,2H11c-1.1,0-2-0.9-2-2V4C9,2.9,9.9,2,11,2z"/>
</svg>
