<?xml version="1.0" encoding="utf-8"?>
<!-- Generator: Adobe Illustrator 19.0.0, SVG Export Plug-In . SVG Version: 6.00 Build 0)  -->
<svg version="1.1" id="图层_1" xmlns="http://www.w3.org/2000/svg" xmlns:xlink="http://www.w3.org/1999/xlink" x="0px" y="0px"
	 viewBox="-785 443 28 16" style="enable-background:new -785 443 28 16;" xml:space="preserve">
<style type="text/css">
	.st0{fill:#FFA546;}
</style>
<path id="path-1_2_" class="st0" d="M-759,444c0.6,0,1,0.4,1,1v12c0,0.6-0.4,1-1,1h-24c-0.6,0-1-0.4-1-1v-12c0-0.6,0.4-1,1-1H-759
	 M-759,443h-24c-1.1,0-2,0.9-2,2v12c0,1.1,0.9,2,2,2h24c1.1,0,2-0.9,2-2v-12C-757,443.9-757.9,443-759,443L-759,443z"/>
<path id="精品" class="st0" d="M-781.3,450v1h1.4c-0.3,1-0.9,1.8-1.6,2.6l0.5,1.2c0.5-0.7,0.9-1.4,1.2-2.2v3.6h1.1v-3.9
	c0.2,0.4,0.5,0.9,0.9,1.5l0.6-1c-0.5-0.6-1-1.1-1.5-1.6V451h1.2v-1h-1.2v-3.7h-1.1v3.7H-781.3z M-778.2,447
	c-0.1,0.9-0.2,1.6-0.4,2.3l0.7,0.2c0.2-0.7,0.4-1.5,0.5-2.4L-778.2,447z M-780.5,447.2l-0.8,0.3c0.2,0.7,0.3,1.4,0.5,2.2l0.7-0.2
	C-780.2,448.6-780.3,447.8-780.5,447.2L-780.5,447.2z M-774.9,446.2v0.6h-2.2v0.9h2.2v0.5h-1.9v0.9h1.9v0.5h-2.4v0.9h5.9v-0.9h-2.4
	v-0.5h1.8v-0.9h-1.8v-0.5h2.1v-0.9h-2.1v-0.6H-774.9z M-775.8,453.2h2.8v0.5h-2.8V453.2z M-773,452.4h-2.8v-0.5h2.8V452.4z
	 M-775.8,454.6h2.8v0.3c0,0.2-0.1,0.3-0.3,0.3l-0.7-0.1l0.3,1h0.7c0.7,0,1.1-0.4,1.1-1.1v-4.2h-4.9v5.3h1.1V454.6z M-768,446.6v3.9
	h6.2v-3.9H-768z M-762.9,449.4h-4v-1.7h4V449.4z M-765.4,451.2h-4.1v4.9h1.1v-0.5h1.9v0.5h1.1V451.2z M-768.4,454.6v-2.3h1.9v2.3
	H-768.4z M-760.3,451.2h-4.2v4.9h1.1v-0.5h2v0.5h1.1V451.2z M-763.5,454.6v-2.3h2v2.3H-763.5z"/>
</svg>
