<?xml version="1.0" encoding="utf-8"?>
<!-- Generator: Adobe Illustrator 19.0.0, SVG Export Plug-In . SVG Version: 6.00 Build 0)  -->
<svg version="1.1" id="图层_1" xmlns="http://www.w3.org/2000/svg" xmlns:xlink="http://www.w3.org/1999/xlink" x="0px" y="0px"
	 viewBox="7 0 34 20" style="enable-background:new 7 0 34 20;" xml:space="preserve">
<style type="text/css">
	.st0{fill:#F8627E;}
</style>
<path id="亮点-copy" class="st0" d="M17,11.3v0.8c0,1-0.8,1.5-2.5,1.8l0.5,0.8c1.9-0.3,2.8-1.1,2.9-2.4v-0.1H20v1.5
	c0,0.6,0.4,0.9,1.1,0.9h1.2c0.4,0,0.7-0.1,0.9-0.3c0.1-0.2,0.2-0.7,0.3-1.4l-0.8-0.3c-0.1,0.7-0.2,1.1-0.2,1.1
	c-0.1,0.1-0.1,0.1-0.3,0.1h-0.8c-0.2,0-0.3-0.1-0.3-0.3v-2.1H17z M14.7,6.1v0.8h8.6V6.1h-3.8c-0.1-0.3-0.3-0.6-0.4-0.8l-1,0.2
	c0.2,0.2,0.3,0.4,0.5,0.7H14.7z M16.1,7.4v2.1h5.7V7.4H16.1z M20.9,8.7h-3.8V8.1h3.8V8.7z M23.1,9.9h-8.3v1.9h0.9v-1.1h6.4v1.1h1
	V9.9z M28.4,5.4v2.8h-2.7v3.4h6.8V8.2h-3.2V7.2h3.8V6.3h-3.8V5.4H28.4z M31.5,10.8h-4.9V9.1h4.9V10.8z M25.6,12
	c-0.4,0.8-0.8,1.5-1.3,2l0.8,0.6c0.5-0.6,0.9-1.4,1.3-2.2L25.6,12z M28,12.3l-0.9,0.2c0.2,0.6,0.4,1.3,0.5,2.1l1-0.2
	C28.4,13.6,28.2,12.9,28,12.3L28,12.3z M30.1,12.1l-0.9,0.2c0.3,0.6,0.5,1.4,0.7,2.2l0.9-0.2C30.6,13.6,30.4,12.8,30.1,12.1
	L30.1,12.1z M32.1,11.9l-0.8,0.5c0.6,0.8,1.1,1.5,1.4,2.2l0.8-0.6C33.2,13.5,32.7,12.8,32.1,11.9L32.1,11.9z"/>
<path id="Rectangle-11" class="st0" d="M10,16c0,0.5,0.4,1,1,1h26c0.5,0,1-0.4,1-1V4c0-0.5-0.4-1-1-1H11c-0.5,0-1,0.4-1,1V16z M11,2
	h26c1.1,0,2,0.9,2,2v12c0,1.1-0.9,2-2,2H11c-1.1,0-2-0.9-2-2V4C9,2.9,9.9,2,11,2z"/>
</svg>
