<?xml version="1.0" encoding="utf-8"?>
<!-- Generator: Adobe Illustrator 19.0.0, SVG Export Plug-In . SVG Version: 6.00 Build 0)  -->
<svg version="1.1" id="图层_1" xmlns="http://www.w3.org/2000/svg" xmlns:xlink="http://www.w3.org/1999/xlink" x="0px" y="0px"
	 viewBox="-785 443 28 16" style="enable-background:new -785 443 28 16;" xml:space="preserve">
<style type="text/css">
	.st0{fill:#F38A9E;}
	.st1{fill:#F28A9E;}
</style>
<path id="path-1_2_" class="st0" d="M-759,444c0.6,0,1,0.4,1,1v12c0,0.6-0.4,1-1,1h-24c-0.6,0-1-0.4-1-1v-12c0-0.6,0.4-1,1-1H-759
	 M-759,443h-24c-1.1,0-2,0.9-2,2v12c0,1.1,0.9,2,2,2h24c1.1,0,2-0.9,2-2v-12C-757,443.9-757.9,443-759,443L-759,443z"/>
<path id="热门" class="st1" d="M-772.3,453.1c0.2,0,0.3-0.1,0.5-0.3c0.2-0.3,0.3-0.9,0.4-1.9l-0.9-0.4c0,0.3,0,0.7-0.1,1
	c0,0.3-0.1,0.5-0.2,0.5c0,0-0.1-0.1-0.2-0.3c-0.2-0.4-0.2-1.2-0.2-2.4v-2.2h-2.2v-1.3h-1.1v1.3h-1.1v1.1h1.1c0,0.5-0.1,0.9-0.1,1.3
	c-0.2-0.1-0.4-0.3-0.6-0.4l-0.6,0.9c0.3,0.2,0.6,0.4,0.9,0.6c-0.3,0.7-0.8,1.4-1.4,1.8l0.8,0.7c0.6-0.5,1.1-1.1,1.5-1.9
	c0.3,0.3,0.7,0.6,1,1l0.6-1c-0.4-0.4-0.8-0.8-1.3-1.1c0.2-0.6,0.2-1.3,0.3-2h1.1v1.1c0,1.7,0.2,2.8,0.7,3.3
	C-773.1,453-772.7,453.1-772.3,453.1L-772.3,453.1z M-781.4,447.1v1.1h1.4v1.6c-0.6,0.1-1.1,0.2-1.7,0.3l0.3,1.1
	c0.5-0.1,0.9-0.2,1.4-0.3v0.9c0,0.2-0.1,0.4-0.3,0.4c-0.3,0-0.6,0-0.9-0.1l0.3,1.1h1c0.7,0,1-0.4,1-1.1v-1.5
	c0.4-0.1,0.7-0.2,1.1-0.3v-1.1l-1.1,0.3v-1.3h1.2v-1.1h-1.2v-1.2h-1.1v1.2H-781.4z M-780.3,453.4c-0.4,0.7-0.8,1.4-1.3,1.9l0.9,0.7
	c0.5-0.6,0.9-1.3,1.3-2.1L-780.3,453.4z M-777.6,453.7l-1.1,0.2c0.2,0.6,0.4,1.3,0.5,2l1.1-0.3C-777.2,455-777.4,454.3-777.6,453.7
	L-777.6,453.7z M-775.4,453.5l-1.1,0.2c0.3,0.6,0.6,1.3,0.7,2.1l1.1-0.3C-774.8,454.9-775.1,454.2-775.4,453.5L-775.4,453.5z
	 M-773.3,453.2l-0.9,0.6c0.6,0.8,1.1,1.5,1.5,2.2l0.9-0.7C-772.2,454.7-772.6,454-773.3,453.2L-773.3,453.2z M-761.9,455.8
	c0.9,0,1.3-0.4,1.3-1.3v-8.2h-5.1v1h4v6.9c0,0.4-0.1,0.6-0.4,0.6l-0.9,0l0.3,1.1H-761.9z M-769.6,447.7v8.2h1.1v-8.2H-769.6z
	 M-767.7,445.8l-1,0.5c0.5,0.6,0.9,1.2,1.3,2l1-0.5C-766.8,447-767.2,446.3-767.7,445.8L-767.7,445.8z"/>
</svg>
