<?xml version="1.0" encoding="utf-8"?>
<!-- Generator: Adobe Illustrator 19.0.0, SVG Export Plug-In . SVG Version: 6.00 Build 0)  -->
<svg version="1.1" id="图层_1" xmlns="http://www.w3.org/2000/svg" xmlns:xlink="http://www.w3.org/1999/xlink" x="0px" y="0px"
	 viewBox="0 0 20 20" style="enable-background:new 0 0 20 20;" xml:space="preserve">
<style type="text/css">
	.st0{fill:#5A626D;}
</style>
<title>Icon/login</title>
<desc>Created with Sketch.</desc>
<g id="Symbols">
	<g id="Icon_x2F_login">
		<g id="Group" transform="translate(2.000000, 1.000000)">
			<path class="st0" d="M8,9.1c-2.5,0-4.5-2-4.5-4.5s2-4.5,4.5-4.5s4.5,2,4.5,4.5S10.5,9.1,8,9.1z M8,1.1c-1.9,0-3.5,1.6-3.5,3.5
				S6.1,8.1,8,8.1s3.5-1.6,3.5-3.5S9.9,1.1,8,1.1z"/>
			<path class="st0" d="M14.4,17.3H1.6c-1.2,0-2.1-0.9-2.1-1.9V15c0-0.7,0.3-1.4,0.9-1.9c2-1.8,4.7-2.7,7.6-2.7c2.9,0,5.6,1,7.6,2.7
				c0.5,0.5,0.9,1.2,0.9,1.9v0.5C16.5,16.5,15.6,17.3,14.4,17.3z M8,11.4c-2.7,0-5.1,0.9-7,2.5c-0.3,0.3-0.5,0.7-0.5,1.1v0.5
				c0,0.5,0.5,0.9,1.1,0.9h12.8c0.6,0,1.1-0.4,1.1-0.9V15c0-0.4-0.2-0.8-0.5-1.1C13.1,12.2,10.7,11.4,8,11.4z"/>
		</g>
	</g>
</g>
</svg>
