<?xml version="1.0" encoding="utf-8"?>
<!-- Generator: Adobe Illustrator 19.0.0, SVG Export Plug-In . SVG Version: 6.00 Build 0)  -->
<svg version="1.1" id="图层_1" xmlns="http://www.w3.org/2000/svg" xmlns:xlink="http://www.w3.org/1999/xlink" x="0px" y="0px"
	 viewBox="0 0 20 20" style="enable-background:new 0 0 20 20;" xml:space="preserve">
<style type="text/css">
	.st0{fill:#8E97A1;}
</style>
<path class="st0" d="M15.3,3H4.8C3.8,3,3,3.8,3,4.8v10.4c0,1,0.8,1.8,1.8,1.8h10.4c1,0,1.8-0.8,1.9-1.7V4.8C17.1,3.8,16.3,3,15.3,3z
	 M4.8,6.5c0-1,0.8-1.8,1.8-1.8s1.6,0.8,1.6,1.8S7.4,8.3,6.4,8.3S4.8,7.5,4.8,6.5z M9.2,14.5c0,0.5-0.4,0.9-0.9,0.9S7.4,15,7.4,14.5
	v-0.9H6.5c-0.2-0.1-0.5-0.2-0.6-0.4c-0.2-0.2-0.3-0.4-0.3-0.6V10c0-0.5,0.4-0.9,0.9-0.9S7.4,9.5,7.4,10v1.8h0.9
	c0.2,0,0.5,0.1,0.6,0.3c0.2,0.2,0.3,0.4,0.3,0.6V14.5z M14.4,12.6c0,0.2-0.1,0.4-0.3,0.6c-0.1,0.2-0.4,0.3-0.6,0.4h-0.9v0.9
	c0,0.5-0.4,0.9-0.9,0.9s-0.9-0.4-0.9-0.9v-1.8c0-0.2,0.1-0.4,0.3-0.6c0.1-0.2,0.4-0.3,0.6-0.3h0.9V10c0-0.5,0.4-0.9,0.9-0.9
	s0.9,0.4,0.9,0.9V12.6z M13.6,8.3c-1,0-1.8-0.8-1.8-1.8s0.7-1.7,1.8-1.8c1,0,1.8,0.8,1.8,1.8S14.6,8.3,13.6,8.3z"/>
</svg>
