<?xml version="1.0" encoding="utf-8"?>
<!-- Generator: Adobe Illustrator 19.0.0, SVG Export Plug-In . SVG Version: 6.00 Build 0)  -->
<svg version="1.1" id="图层_1" xmlns="http://www.w3.org/2000/svg" xmlns:xlink="http://www.w3.org/1999/xlink" x="0px" y="0px"
	 viewBox="0 0 20 20" style="enable-background:new 0 0 20 20;" xml:space="preserve">
<style type="text/css">
	.st0{fill-rule:evenodd;clip-rule:evenodd;fill:#8E97A1;}
</style>
<path class="st0" d="M11.8,6.5c0,1,0.8,1.8,1.8,1.8c1,0,1.8-0.8,1.8-1.8c0-1-0.8-1.8-1.8-1.8C12.5,4.8,11.8,5.5,11.8,6.5z M8.2,6.5
	c0,1-0.8,1.8-1.8,1.8S4.8,7.5,4.8,6.5c0-1,0.8-1.8,1.8-1.8S8.2,5.5,8.2,6.5z M15.2,17H4.8c-1,0-1.8-0.8-1.8-1.8V4.8
	C3,3.8,3.8,3,4.8,3h10.5c1,0,1.8,0.8,1.8,1.8v10.5C17,16.2,16.2,17,15.2,17z M5.9,13.2c-0.2-0.2-0.3-0.4-0.3-0.6V10
	c0-0.5,0.4-0.9,0.9-0.9S7.4,9.5,7.4,10v1.8h0.9c0.2,0,0.5,0.1,0.6,0.3c0.2,0.2,0.3,0.4,0.3,0.6v1.8c0,0.5-0.4,0.9-0.9,0.9
	s-0.9-0.4-0.9-0.9v-0.9H6.5C6.3,13.5,6,13.4,5.9,13.2z M14.1,13.2c0.2-0.2,0.3-0.4,0.3-0.6V10c0-0.5-0.4-0.9-0.9-0.9
	s-0.9,0.4-0.9,0.9v1.8h-0.9c-0.2,0-0.5,0.1-0.6,0.3c-0.2,0.2-0.3,0.4-0.3,0.6v1.8c0,0.5,0.4,0.9,0.9,0.9s0.9-0.4,0.9-0.9v-0.9h0.9
	C13.7,13.5,14,13.4,14.1,13.2z"/>
</svg>
