<?xml version="1.0" encoding="utf-8"?>
<!-- Generator: Adobe Illustrator 19.0.0, SVG Export Plug-In . SVG Version: 6.00 Build 0)  -->
<svg version="1.1" id="图层_1" xmlns="http://www.w3.org/2000/svg" xmlns:xlink="http://www.w3.org/1999/xlink" x="0px" y="0px"
	 viewBox="0 0 20 20" style="enable-background:new 0 0 20 20;" xml:space="preserve">
<style type="text/css">
	.st0{fill:#5A626D;}
</style>
<path id="Rectangle" class="st0" d="M2,14c0,0.6,0.4,1,1,1h14c0.5,0,1-0.4,1-1V4c0-0.6-0.4-1-1-1H3C2.4,3,2,3.4,2,4V14z M3,2h14
	c1.1,0,2,0.9,2,2v10c0,1.1-0.9,2-2,2H3c-1.1,0-2-0.9-2-2V4C1,2.9,1.9,2,3,2z"/>
<path id="Combined-Shape" class="st0" d="M14.6,8.8l4.1-3.4l0-1.3L12,9.7l-3.9,0L1.4,3.8l0,1.3l4.2,3.6l-4.3,3.7l0,1.4l5.1-4.4
	l1.3,1.1l0.1,0.1H8h4.2h0.2l0.1-0.1l1.3-1.1l5,4.4l0-1.3L14.6,8.8z"/>
</svg>
