<?xml version="1.0" encoding="utf-8"?>
<!-- Generator: Adobe Illustrator 19.0.0, SVG Export Plug-In . SVG Version: 6.00 Build 0)  -->
<svg version="1.1" id="图层_1" xmlns="http://www.w3.org/2000/svg" xmlns:xlink="http://www.w3.org/1999/xlink" x="0px" y="0px"
	 viewBox="0 0 20 20" style="enable-background:new 0 0 20 20;" xml:space="preserve">
<style type="text/css">
	.st0{clip-path:url(#SVGID_2_);fill:#969FA9;}
	.st1{clip-path:url(#SVGID_4_);fill:#969FA9;}
	.st2{clip-path:url(#SVGID_6_);fill:#969FA9;}
	.st3{clip-path:url(#SVGID_8_);fill:#969FA9;}
	.st4{clip-path:url(#SVGID_10_);fill:#969FA9;}
	.st5{clip-path:url(#SVGID_12_);fill:#969FA9;}
</style>
<g>
	<defs>
		<rect id="SVGID_1_" x="8" y="13" width="4" height="3"/>
	</defs>
	<clipPath id="SVGID_2_">
		<use xlink:href="#SVGID_1_"  style="overflow:visible;"/>
	</clipPath>
	<rect x="3" y="8" class="st0" width="14" height="13"/>
</g>
<g>
	<defs>
		<path id="SVGID_3_" d="M15.5,12V5h-11v7H15.5z M2.5,5c0-1.1,0.9-2,2-2h11c1.1,0,2,0.9,2,2v7c0,1.1-0.9,2-2,2h-11c-1.1,0-2-0.9-2-2
			V5z"/>
	</defs>
	<clipPath id="SVGID_4_">
		<use xlink:href="#SVGID_3_"  style="overflow:visible;"/>
	</clipPath>
	<rect x="-2.5" y="-2" class="st1" width="25" height="21"/>
</g>
<g>
	<defs>
		<path id="SVGID_5_" d="M6,16c0-0.6,0.5-1,1-1h6c0.6,0,1,0.4,1,1c0,0.6-0.5,1-1,1H7C6.4,17,6,16.6,6,16z"/>
	</defs>
	<clipPath id="SVGID_6_">
		<use xlink:href="#SVGID_5_"  style="overflow:visible;"/>
	</clipPath>
	<rect x="1" y="10" class="st2" width="18" height="12"/>
</g>
<g>
	<defs>
		<rect id="SVGID_7_" x="6" y="6.5" width="3.5" height="4"/>
	</defs>
	<clipPath id="SVGID_8_">
		<use xlink:href="#SVGID_7_"  style="overflow:visible;"/>
	</clipPath>
	<rect x="1" y="1.5" class="st3" width="13.5" height="14"/>
</g>
<g>
	<defs>
		<rect id="SVGID_9_" x="11" y="6.5" width="3" height="1.5"/>
	</defs>
	<clipPath id="SVGID_10_">
		<use xlink:href="#SVGID_9_"  style="overflow:visible;"/>
	</clipPath>
	<rect x="6" y="1.5" class="st4" width="13" height="11.5"/>
</g>
<g>
	<defs>
		<rect id="SVGID_11_" x="11" y="9" width="3" height="1.5"/>
	</defs>
	<clipPath id="SVGID_12_">
		<use xlink:href="#SVGID_11_"  style="overflow:visible;"/>
	</clipPath>
	<rect x="6" y="4" class="st5" width="13" height="11.5"/>
</g>
</svg>
