<?xml version="1.0" encoding="utf-8"?>
<!-- Generator: Adobe Illustrator 19.0.0, SVG Export Plug-In . SVG Version: 6.00 Build 0)  -->
<svg version="1.1" id="图层_1" xmlns="http://www.w3.org/2000/svg" xmlns:xlink="http://www.w3.org/1999/xlink" x="0px" y="0px"
	 viewBox="0 0 20 20" style="enable-background:new 0 0 20 20;" xml:space="preserve">
<style type="text/css">
	.st0{fill:#949DA7;}
</style>
<path class="st0" d="M6,16c0-0.6,0.5-1,1-1h6c0.6,0,1,0.4,1,1s-0.5,1-1,1H7C6.4,17,6,16.6,6,16z"/>
<rect x="6" y="6.5" class="st0" width="3.5" height="4"/>
<rect x="11" y="6.5" class="st0" width="3" height="1.5"/>
<rect x="11" y="9" class="st0" width="3" height="1.5"/>
<rect x="8" y="13" class="st0" width="4" height="3"/>
<path class="st0" d="M15.5,12V5h-11v7H15.5z M2.5,5c0-1.1,0.9-2,2-2h11c1.1,0,2,0.9,2,2v7c0,1.1-0.9,2-2,2h-11c-1.1,0-2-0.9-2-2V5z"
	/>
</svg>
