<?xml version="1.0" encoding="utf-8"?>
<!-- Generator: Adobe Illustrator 19.0.0, SVG Export Plug-In . SVG Version: 6.00 Build 0)  -->
<svg version="1.1" id="图层_1" xmlns="http://www.w3.org/2000/svg" xmlns:xlink="http://www.w3.org/1999/xlink" x="0px" y="0px"
	 viewBox="0 0 20 20" style="enable-background:new 0 0 20 20;" xml:space="preserve">
<style type="text/css">
	.st0{fill:#969FA9;}
</style>
<path class="st0" d="M17,1H3C1.9,1,1,1.9,1,3v14c0,1.1,0.9,2,2,2h14c1.1,0,2-0.9,2-2V3C19,1.9,18.1,1,17,1z M17.2,17.2H2.8V2.8h14.4
	V17.2z"/>
<path id="Combined-Shape_1_" class="st0" d="M4.2,9.7l-0.5,0.5l2.4,2.4c0.3,0.3,0.7,0.3,1,0c0.3-0.3,0.3-0.7,0-1l-1.4-1.4l1.4-1.4
	c0.3-0.3,0.3-0.7,0-1c-0.3-0.3-0.7-0.3-1,0L4.2,9.7z"/>
<path id="Combined-Shape_2_" class="st0" d="M15.8,10.7l0.5-0.5l-2.4-2.4c-0.3-0.3-0.7-0.3-1,0c-0.3,0.3-0.3,0.7,0,1l1.4,1.4
	l-1.4,1.4c-0.3,0.3-0.3,0.7,0,1c0.3,0.3,0.7,0.3,1,0L15.8,10.7z"/>
<rect id="Rectangle-2" x="5.3" y="9.5" class="st0" width="9.5" height="1.7"/>
</svg>
