<?xml version="1.0" encoding="utf-8"?>
<!-- Generator: Adobe Illustrator 19.0.0, SVG Export Plug-In . SVG Version: 6.00 Build 0)  -->
<svg version="1.1" id="图层_1" xmlns="http://www.w3.org/2000/svg" xmlns:xlink="http://www.w3.org/1999/xlink" x="0px" y="0px"
	 viewBox="0 0 20 20" style="enable-background:new 0 0 20 20;" xml:space="preserve">
<style type="text/css">
	.st0{fill:#969FA9;}
</style>
<path id="path-1_2_" class="st0" d="M15.4,5.8L10.2,15L4.4,9.6L15.4,5.8 M16.2,4.5c-0.2,0-0.4,0-0.6,0.1L3.4,8.9
	C2.9,9,2.8,9.5,3.2,9.9l6.5,6.1c0.2,0.2,0.4,0.2,0.6,0.2c0.3,0,0.5-0.1,0.7-0.4l5.5-10C16.9,5,16.8,4.5,16.2,4.5L16.2,4.5z"/>
<path class="st0" d="M6.6,16.1c-0.1,0-0.3,0-0.3-0.1c-0.2-0.1-0.5-0.3-0.5-1V12l9.5-6.7l0.6,0.8l-9,6.4V15l1.4-1.3l0.7,0.8l-1.5,1.3
	C7,16.1,6.8,16.1,6.6,16.1z"/>
</svg>
