<?xml version="1.0" encoding="utf-8"?>
<!-- Generator: Adobe Illustrator 19.0.0, SVG Export Plug-In . SVG Version: 6.00 Build 0)  -->
<svg version="1.1" id="图层_1" xmlns="http://www.w3.org/2000/svg" xmlns:xlink="http://www.w3.org/1999/xlink" x="0px" y="0px"
	 viewBox="0 0 20 20" style="enable-background:new 0 0 20 20;" xml:space="preserve">
<style type="text/css">
	.st0{fill:#A6C7FD;}
</style>
<path id="path-1_2_" class="st0" d="M13.4,3.9L13.4,3.9v12.1H3.9l0-12.1H13.4 M13.4,2.4H3.9c-0.8,0-1.5,0.7-1.5,1.5v12.1
	c0,0.8,0.7,1.5,1.5,1.5h9.4c0.8,0,1.5-0.7,1.5-1.5V3.9C14.9,3.1,14.2,2.4,13.4,2.4L13.4,2.4z"/>
<rect id="Rectangle-2" x="5.1" y="10.9" class="st0" width="7.1" height="1.3"/>
<rect id="Rectangle-2_1_" x="5.1" y="13.6" class="st0" width="7.1" height="1.3"/>
<path id="path-3_2_" class="st0" d="M10.7,6.6v1.4H6.6V6.6H10.7 M12.2,5.1H5.1v4.4h7.1V5.1L12.2,5.1z"/>
<polygon class="st0" points="17.9,17.6 12.8,17.6 12.8,16.1 16.4,16.1 16.4,6.3 14.7,6.3 14.7,4.8 17.9,4.8 "/>
</svg>
