<?xml version="1.0" encoding="utf-8"?>
<!-- Generator: Adobe Illustrator 19.0.0, SVG Export Plug-In . SVG Version: 6.00 Build 0)  -->
<svg version="1.1" id="图层_1" xmlns="http://www.w3.org/2000/svg" xmlns:xlink="http://www.w3.org/1999/xlink" x="0px" y="0px"
	 viewBox="0 0 20 20" style="enable-background:new 0 0 20 20;" xml:space="preserve">
<style type="text/css">
	.st0{fill:#CCCCCC;}
</style>
<path id="Combined-Shape_1_" class="st0" d="M10.1,12.9L10.1,12.9l3.7-3.7c0.3-0.3,0.3-0.8,0-1.1c-0.3-0.3-0.8-0.3-1.1,0l-2.7,2.7
	L7.5,8.1c-0.3-0.3-0.8-0.3-1.1,0c-0.3,0.3-0.3,0.8,0,1.1L10.1,12.9L10.1,12.9z"/>
<path class="st0" d="M15,18H5c-1.7,0-3-1.3-3-3V5c0-1.7,1.3-3,3-3h10c1.7,0,3,1.3,3,3v10C18,16.7,16.7,18,15,18z M5,4
	C4.4,4,4,4.4,4,5v10c0,0.6,0.4,1,1,1h10c0.6,0,1-0.4,1-1V5c0-0.6-0.4-1-1-1H5z"/>
</svg>
