<?xml version="1.0" encoding="utf-8"?>
<!-- Generator: Adobe Illustrator 19.0.0, SVG Export Plug-In . SVG Version: 6.00 Build 0)  -->
<svg version="1.1" id="图层_1" xmlns="http://www.w3.org/2000/svg" xmlns:xlink="http://www.w3.org/1999/xlink" x="0px" y="0px"
	 viewBox="-117 64.4 20 20" style="enable-background:new -117 64.4 20 20;" xml:space="preserve">
<style type="text/css">
	.st0{fill:#6BA2FC;}
</style>
<path class="st0" d="M-107,74.7c-0.1,0-0.2,0-0.3-0.1l-5-3.8c-0.2-0.2-0.3-0.5-0.1-0.7c0.2-0.2,0.5-0.3,0.7-0.1l4.7,3.6l4.7-3.6
	c0.2-0.2,0.5-0.1,0.7,0.1c0.2,0.2,0.1,0.5-0.1,0.7l-5,3.8C-106.8,74.7-106.9,74.7-107,74.7z"/>
<path class="st0" d="M-107,80.4c-0.1,0-0.2,0-0.3-0.1l-5-4c-0.1-0.1-0.2-0.2-0.2-0.4v-1.5c0-0.2,0.1-0.4,0.3-0.5
	c0.2-0.1,0.4-0.1,0.5,0.1l4.7,3.7l4.7-3.7c0.2-0.1,0.4-0.1,0.5-0.1c0.2,0.1,0.3,0.3,0.3,0.5v1.5c0,0.2-0.1,0.3-0.2,0.4l-5,4
	C-106.8,80.4-106.9,80.4-107,80.4z"/>
</svg>
