<?xml version="1.0" encoding="utf-8"?>
<!-- Generator: Adobe Illustrator 19.0.0, SVG Export Plug-In . SVG Version: 6.00 Build 0)  -->
<svg version="1.1" id="图层_1" xmlns="http://www.w3.org/2000/svg" xmlns:xlink="http://www.w3.org/1999/xlink" x="0px" y="0px"
	 viewBox="0 0 20 20" style="enable-background:new 0 0 20 20;" xml:space="preserve">
<style type="text/css">
	.st0{fill:#CCCCCC;}
</style>
<path class="st0" d="M15,17.5H5c-1.4,0-2.5-1.1-2.5-2.5V5c0-1.4,1.1-2.5,2.5-2.5h10c1.4,0,2.5,1.1,2.5,2.5v10
	C17.5,16.4,16.4,17.5,15,17.5z M5,3.5C4.2,3.5,3.5,4.2,3.5,5v10c0,0.8,0.7,1.5,1.5,1.5h10c0.8,0,1.5-0.7,1.5-1.5V5
	c0-0.8-0.7-1.5-1.5-1.5H5z"/>
<path id="Combined-Shape_1_" class="st0" d="M10.1,12.9L10.1,12.9l3.7-3.7c0.3-0.3,0.3-0.8,0-1.1c-0.3-0.3-0.8-0.3-1.1,0l-2.7,2.7
	L7.5,8.1c-0.3-0.3-0.8-0.3-1.1,0c-0.3,0.3-0.3,0.8,0,1.1L10.1,12.9L10.1,12.9z"/>
</svg>
