<?xml version="1.0" encoding="utf-8"?>
<!-- Generator: Adobe Illustrator 19.0.0, SVG Export Plug-In . SVG Version: 6.00 Build 0)  -->
<svg version="1.1" id="图层_1" xmlns="http://www.w3.org/2000/svg" xmlns:xlink="http://www.w3.org/1999/xlink" x="0px" y="0px"
	 viewBox="0 0 20 20" style="enable-background:new 0 0 20 20;" xml:space="preserve">
<style type="text/css">
	.st0{fill:#5A626D;}
</style>
<path class="st0" d="M10,10.1c-2.5,0-4.5-2-4.5-4.5s2-4.5,4.5-4.5s4.5,2,4.5,4.5S12.5,10.1,10,10.1z M10,2.1c-1.9,0-3.5,1.6-3.5,3.5
	S8.1,9.1,10,9.1s3.5-1.6,3.5-3.5S11.9,2.1,10,2.1z"/>
<path class="st0" d="M13.2,18.3H3.6c-1.2,0-2.1-0.9-2.1-1.9V16c0-0.7,0.3-1.4,0.9-1.9c2-1.8,4.7-2.7,7.6-2.7c1.1,0,2.2,0.1,3.2,0.4
	c0.3,0.1,0.4,0.3,0.4,0.6c-0.1,0.3-0.3,0.4-0.6,0.4c-1-0.3-2-0.4-3-0.4c-2.7,0-5.1,0.9-7,2.5c-0.3,0.3-0.5,0.7-0.5,1.1v0.5
	c0,0.5,0.5,0.9,1.1,0.9h9.6c0.3,0,0.5,0.2,0.5,0.5S13.4,18.3,13.2,18.3z"/>
<path class="st0" d="M16.4,17.8h-0.3c-0.3,0-0.5-0.2-0.5-0.6v-1.5h-1.5c-0.3,0-0.6-0.2-0.6-0.5v-0.3c0-0.3,0.2-0.5,0.6-0.5h1.5v-1.5
	c0-0.3,0.2-0.5,0.5-0.5h0.3c0.3,0,0.5,0.2,0.5,0.5v1.5h1.5c0.3,0,0.5,0.2,0.5,0.5v0.3c0,0.3-0.2,0.5-0.5,0.5H17v1.5
	C17,17.5,16.7,17.8,16.4,17.8z"/>
</svg>
