<?xml version="1.0" encoding="utf-8"?>
<!-- Generator: Adobe Illustrator 19.0.0, SVG Export Plug-In . SVG Version: 6.00 Build 0)  -->
<svg version="1.1" id="图层_1" xmlns="http://www.w3.org/2000/svg" xmlns:xlink="http://www.w3.org/1999/xlink" x="0px" y="0px"
	 viewBox="0 0 20 20" style="enable-background:new 0 0 20 20;" xml:space="preserve">
<style type="text/css">
	.st0{fill:#969FA9;}
</style>
<path id="_x24_" class="st0" d="M9.9,9.2c-0.5,0-0.8,0.1-1.1,0.3C8.4,9.7,8.2,10,8.2,10.4c0,0.4,0.3,0.8,0.8,1
	c0.3,0.1,0.6,0.2,0.8,0.2v1.7c-0.3,0-0.6-0.1-0.8-0.3C9,13,8.8,12.7,8.8,12.3H8.1c0.1,0.5,0.2,0.9,0.6,1.1c0.3,0.2,0.7,0.4,1.2,0.4
	v0.6h0.4v-0.6c0.5,0,0.9-0.1,1.2-0.3c0.4-0.2,0.6-0.6,0.6-1s-0.3-0.8-0.8-1c-0.2-0.1-0.5-0.2-1-0.3V9.6c0.3,0,0.5,0.1,0.7,0.2
	c0.2,0.1,0.4,0.4,0.4,0.7H12c-0.1-0.4-0.3-0.8-0.6-1c-0.3-0.2-0.7-0.3-1.1-0.3V8.6H9.9V9.2z M10.3,11.8c0.1,0,0.2,0.1,0.3,0.1
	c0.6,0.2,0.8,0.4,0.8,0.7c0,0.3-0.1,0.5-0.3,0.6c-0.2,0.1-0.5,0.2-0.8,0.2V11.8z M9.9,11.1l-0.2-0.1c-0.6-0.2-0.8-0.4-0.8-0.7
	c0-0.3,0.1-0.5,0.4-0.6c0.2-0.1,0.4-0.2,0.7-0.2V11.1z"/>
<rect id="Rectangle-3" x="9.7" y="8.6" class="st0" width="0.3" height="5.7"/>
<g id="path-1_1_">
	<path class="st0" d="M12.7,7.8l3.1,7.3c0.1,0.2,0.1,0.3,0,0.4c0,0-0.1,0.1-0.4,0.1H4.3c-0.2,0-0.3-0.1-0.4-0.1c0,0,0-0.2,0-0.4
		l3.1-7.3H12.7 M13.4,6.8h-7l-3.3,7.9c-0.4,1,0.1,1.8,1.2,1.8h11.2c1.1,0,1.7-0.8,1.2-1.8L13.4,6.8L13.4,6.8z"/>
</g>
<g id="path-3_1_">
	<path class="st0" d="M14.2,4.5l-1.3,2.3H7.1L5.8,4.5H14.2 M14.8,3.5H5.2c-0.6,0-0.8,0.4-0.5,0.9l1.9,3.5h7l1.9-3.5
		C15.6,3.9,15.4,3.5,14.8,3.5L14.8,3.5z"/>
</g>
</svg>
