<?xml version="1.0" encoding="utf-8"?>
<!-- Generator: Adobe Illustrator 19.0.0, SVG Export Plug-In . SVG Version: 6.00 Build 0)  -->
<svg version="1.1" id="图层_1" xmlns="http://www.w3.org/2000/svg" xmlns:xlink="http://www.w3.org/1999/xlink" x="0px" y="0px"
	 viewBox="5 -5 30 30" style="enable-background:new 5 -5 30 30;" xml:space="preserve">
<style type="text/css">
	.st0{fill:#FFFFFF;}
</style>
<path id="Fill-1" class="st0" d="M18.5-2C12.7-2,8,2.7,8,8.5S12.7,19,18.5,19S29,14.3,29,8.5S24.3-2,18.5-2 M18.5,1
	C22.6,1,26,4.4,26,8.5S22.6,16,18.5,16S11,12.6,11,8.5S14.4,1,18.5,1"/>
<path id="Fill-3" class="st0" d="M30.5,22c-0.4,0-0.8-0.1-1.1-0.4l-4.9-4.9c-0.6-0.6-0.6-1.5,0-2.1c0.6-0.6,1.5-0.6,2.1,0l4.9,4.9
	c0.6,0.6,0.6,1.5,0,2.1C31.3,21.9,30.9,22,30.5,22"/>
</svg>
