<?xml version="1.0" encoding="utf-8"?>
<!-- Generator: Adobe Illustrator 19.0.0, SVG Export Plug-In . SVG Version: 6.00 Build 0)  -->
<svg version="1.1" id="图层_1" xmlns="http://www.w3.org/2000/svg" xmlns:xlink="http://www.w3.org/1999/xlink" x="0px" y="0px"
	 viewBox="0 0 20 20" style="enable-background:new 0 0 20 20;" xml:space="preserve">
<style type="text/css">
	.st0{fill:#929BA5;}
	.st1{fill:#949DA7;}
</style>
<path class="st0" d="M9.1,4.8c2.4,0,4.4,2,4.4,4.4s-2,4.4-4.4,4.4s-4.4-2-4.4-4.4C4.7,6.7,6.7,4.8,9.1,4.8 M9.1,3C5.7,3,3,5.7,3,9.1
	s2.7,6.1,6.1,6.1s6.1-2.7,6.1-6.1S12.5,3,9.1,3"/>
<path class="st1" d="M16.1,17c-0.2,0-0.4-0.1-0.6-0.3l-2.8-2.8c-0.3-0.3-0.3-0.9,0-1.2s0.9-0.3,1.2,0l2.8,2.8c0.3,0.3,0.3,0.9,0,1.2
	C16.6,16.9,16.3,17,16.1,17"/>
</svg>
