<?xml version="1.0" encoding="utf-8"?>
<!-- Generator: Adobe Illustrator 19.0.0, SVG Export Plug-In . SVG Version: 6.00 Build 0)  -->
<svg version="1.1" id="图层_1" xmlns="http://www.w3.org/2000/svg" xmlns:xlink="http://www.w3.org/1999/xlink" x="0px" y="0px"
	 viewBox="0 0 20 20" style="enable-background:new 0 0 20 20;" xml:space="preserve">
<style type="text/css">
	.st0{clip-path:url(#SVGID_2_);fill:#969FA9;}
	.st1{clip-path:url(#SVGID_4_);enable-background:new    ;}
	.st2{clip-path:url(#SVGID_6_);}
	.st3{clip-path:url(#SVGID_8_);}
	.st4{clip-path:url(#SVGID_10_);fill:#969FA9;}
</style>
<g>
	<defs>
		<path id="SVGID_1_" d="M9.1,4.8c2.4,0,4.4,2,4.4,4.4c0,2.4-2,4.4-4.4,4.4s-4.4-2-4.4-4.4C4.7,6.7,6.7,4.8,9.1,4.8 M9.1,3
			C5.7,3,3,5.7,3,9.1s2.7,6.1,6.1,6.1s6.1-2.7,6.1-6.1S12.5,3,9.1,3"/>
	</defs>
	<clipPath id="SVGID_2_">
		<use xlink:href="#SVGID_1_"  style="overflow:visible;"/>
	</clipPath>
	<rect x="-2" y="-2" class="st0" width="22.2" height="22.2"/>
</g>
<g>
	<defs>
		<polygon id="SVGID_3_" points="14.7,17 17,17 17,12.4 12.4,12.4 12.4,17 		"/>
	</defs>
	<clipPath id="SVGID_4_">
		<use xlink:href="#SVGID_3_"  style="overflow:visible;"/>
	</clipPath>
	<g class="st1">
		<g>
			<defs>
				<rect id="SVGID_5_" x="12" y="12" width="5" height="5"/>
			</defs>
			<clipPath id="SVGID_6_">
				<use xlink:href="#SVGID_5_"  style="overflow:visible;"/>
			</clipPath>
			<g class="st2">
				<defs>
					<path id="SVGID_7_" d="M16.1,17c-0.2,0-0.4-0.1-0.6-0.3l-2.8-2.8c-0.3-0.3-0.3-0.9,0-1.2c0.3-0.3,0.9-0.3,1.2,0l2.8,2.8
						c0.3,0.3,0.3,0.9,0,1.2C16.6,16.9,16.3,17,16.1,17"/>
				</defs>
				<clipPath id="SVGID_8_">
					<use xlink:href="#SVGID_7_"  style="overflow:visible;"/>
				</clipPath>
				<g class="st3">
					<defs>
						<rect id="SVGID_9_" x="12" y="12" width="5" height="5"/>
					</defs>
					<clipPath id="SVGID_10_">
						<use xlink:href="#SVGID_9_"  style="overflow:visible;"/>
					</clipPath>
					<rect x="7.4" y="7.4" class="st4" width="14.6" height="14.6"/>
				</g>
			</g>
		</g>
	</g>
</g>
</svg>
