<?xml version="1.0" encoding="utf-8"?>
<!-- Generator: Adobe Illustrator 19.0.0, SVG Export Plug-In . SVG Version: 6.00 Build 0)  -->
<svg version="1.1" id="图层_1" xmlns="http://www.w3.org/2000/svg" xmlns:xlink="http://www.w3.org/1999/xlink" x="0px" y="0px"
	 viewBox="-117 64.4 20 20" style="enable-background:new -117 64.4 20 20;" xml:space="preserve">
<style type="text/css">
	.st0{fill:#5A626D;}
</style>
<path id="Combined-Shape" class="st0" d="M-112.7,67.9c-0.4,0-0.8,0.3-0.8,0.8v4.6c0,0.4,0.3,0.8,0.8,0.8h4.6c0.4,0,0.8-0.3,0.8-0.8
	v-4.6c0-0.4-0.3-0.8-0.8-0.8H-112.7z"/>
<path id="path-1_2_" class="st0" d="M-101.5,69.4v3.1h-3.1v-3.1H-101.5 M-100.7,67.9h-4.6c-0.4,0-0.8,0.3-0.8,0.8v4.6
	c0,0.4,0.3,0.8,0.8,0.8h4.6c0.4,0,0.8-0.3,0.8-0.8v-4.6C-100,68.2-100.3,67.9-100.7,67.9L-100.7,67.9z"/>
<path id="Combined-Shape_2_" class="st0" d="M-112.7,75.4c-0.4,0-0.8,0.3-0.8,0.8v4.6c0,0.4,0.3,0.8,0.8,0.8h4.6
	c0.4,0,0.8-0.3,0.8-0.8v-4.6c0-0.4-0.3-0.8-0.8-0.8H-112.7z"/>
<path id="Combined-Shape_3_" class="st0" d="M-105.3,75.4c-0.4,0-0.8,0.3-0.8,0.8v4.6c0,0.4,0.3,0.8,0.8,0.8h4.6
	c0.4,0,0.8-0.3,0.8-0.8v-4.6c0-0.4-0.3-0.8-0.8-0.8H-105.3z"/>
</svg>
