<?xml version="1.0" encoding="utf-8"?>
<!-- Generator: Adobe Illustrator 19.0.0, SVG Export Plug-In . SVG Version: 6.00 Build 0)  -->
<svg version="1.1" id="图层_1" xmlns="http://www.w3.org/2000/svg" xmlns:xlink="http://www.w3.org/1999/xlink" x="0px" y="0px"
	 viewBox="0 0 20 20" style="enable-background:new 0 0 20 20;" xml:space="preserve">
<style type="text/css">
	.st0{fill:#969FA9;}
</style>
<path class="st0" d="M10,11.2c-0.7,0-1.2-0.5-1.2-1.2c0-0.6,0.5-1.2,1.2-1.2c0.7,0,1.2,0.5,1.2,1.2C11.2,10.6,10.6,11.2,10,11.2
	L10,11.2z M13,10.4c0-0.1,0-0.2,0-0.4c0-0.1,0-0.3,0-0.4l0.9-0.7c0.1-0.1,0.1-0.2,0-0.2l-0.8-1.4c-0.1-0.1-0.2-0.1-0.2,0l-1,0.4
	c-0.2-0.2-0.4-0.3-0.7-0.4l-0.2-1c0-0.1,0-0.2-0.1-0.2c0,0,0,0,0,0H9.2C9.1,6,9,6.1,8.9,6.2L8.8,7.2C8.5,7.3,8.3,7.5,8.1,7.6l-1-0.4
	c-0.1,0-0.2,0-0.3,0.1L6,8.7C6,8.8,6,8.9,6.1,9l0.9,0.6c0,0.1,0,0.2,0,0.4c0,0.1,0,0.3,0,0.4l-0.9,0.7c-0.1,0.1-0.1,0.2,0,0.2
	l0.8,1.4c0.1,0.1,0.2,0.1,0.2,0l1-0.4c0.2,0.2,0.4,0.3,0.7,0.4l0.2,1C9,13.9,9.1,14,9.2,14h1.6c0.1,0,0.2-0.1,0.2-0.2l0.2-1
	c0.2-0.1,0.5-0.2,0.7-0.4l1,0.4c0.1,0,0.2,0,0.2-0.1l0.8-1.4c0.1-0.1,0-0.2,0-0.2L13,10.4z"/>
</svg>
