<?xml version="1.0" encoding="utf-8"?>
<!-- Generator: Adobe Illustrator 19.0.0, SVG Export Plug-In . SVG Version: 6.00 Build 0)  -->
<svg version="1.1" id="图层_1" xmlns="http://www.w3.org/2000/svg" xmlns:xlink="http://www.w3.org/1999/xlink" x="0px" y="0px"
	 viewBox="-117 64.4 20 20" style="enable-background:new -117 64.4 20 20;" xml:space="preserve">
<style type="text/css">
	.st0{fill:#5A626D;}
</style>
<g>
	<path class="st0" d="M-107,73.5c-1.7,0-3.1-1.4-3.1-3.1s1.4-3.1,3.1-3.1s3.1,1.4,3.1,3.1S-105.3,73.5-107,73.5z"/>
</g>
<path class="st0" d="M-100.6,77c-1.6-1.6-3.9-2.6-6.4-2.6s-4.8,1-6.4,2.6c-0.4,0.4-0.6,0.9-0.6,1.5V79c0,0.8,0.6,1.4,1.4,1.4h4.1
	l1.2-2c0,0,0,0,0,0l-0.9-1.5c-0.2-0.3-0.1-0.5,0.2-0.5h2c0.3,0,0.4,0.2,0.2,0.5l-0.9,1.5c0,0,0,0,0,0l1.2,2h4.1
	c0.8,0,1.4-0.6,1.4-1.4v-0.5C-100,78-100.2,77.4-100.6,77z"/>
</svg>
