<?xml version="1.0" encoding="utf-8"?>
<!-- Generator: Adobe Illustrator 19.0.0, SVG Export Plug-In . SVG Version: 6.00 Build 0)  -->
<svg version="1.1" id="图层_1" xmlns="http://www.w3.org/2000/svg" xmlns:xlink="http://www.w3.org/1999/xlink" x="0px" y="0px"
	 viewBox="0 0 20 20" style="enable-background:new 0 0 20 20;" xml:space="preserve">
<style type="text/css">
	.st0{fill:#5A626D;}
</style>
<path class="st0" d="M15.2,17.2H4.8c-1.4,0-2.5-1-2.5-2.3V8.1c0-1.3,1.1-2.3,2.5-2.3h10.5c1.4,0,2.5,1.1,2.5,2.3v6.8
	C17.8,16.2,16.6,17.2,15.2,17.2z M3.8,10.5v4.3c0,0.5,0.4,0.8,1,0.8h10.5c0.6,0,1-0.4,1-0.8v-4.3H3.8z"/>
<polygon id="Path" class="st0" points="5.5,13.5 7.5,13.5 7.5,8.1 5.5,8.1 "/>
<polygon id="Path_1_" class="st0" points="12.5,13.5 14.5,13.5 14.5,8.1 12.5,8.1 "/>
<path class="st0" d="M14.2,7h-1.5V4.5c0-0.4-0.3-0.8-0.8-0.8H8C7.6,3.7,7.2,4,7.2,4.5V7H5.8V4.5c0-1.2,1-2.3,2.3-2.3h4
	c1.2,0,2.3,1,2.3,2.3V7H14.2z"/>
</svg>
