<?xml version="1.0" encoding="utf-8"?>
<!-- Generator: Adobe Illustrator 19.0.0, SVG Export Plug-In . SVG Version: 6.00 Build 0)  -->
<svg version="1.1" id="图层_1" xmlns="http://www.w3.org/2000/svg" xmlns:xlink="http://www.w3.org/1999/xlink" x="0px" y="0px"
	 viewBox="0 0 20 20" style="enable-background:new 0 0 20 20;" xml:space="preserve">
<style type="text/css">
	.st0{fill:#FFA546;}
</style>
<rect x="10.6" y="10.6" class="st0" width="3" height="0.6"/>
<rect x="10.6" y="12" class="st0" width="3" height="0.6"/>
<path class="st0" d="M16,2H4C2.9,2,2,2.9,2,4v12c0,1.1,0.9,2,2,2h12c1.1,0,2-0.9,2-2V4C18,2.9,17.1,2,16,2z M8.2,5.7L9,5.8
	C8.9,6.8,8.8,7.6,8.5,8.3L7.8,8.1C8,7.4,8.2,6.6,8.2,5.7z M5.8,5.9C6,6.6,6.1,7.3,6.2,8.2L5.5,8.4C5.4,7.6,5.2,6.9,5.1,6.1L5.8,5.9z
	 M8.5,12.7c-0.4-0.7-0.7-1.2-1-1.7v4.1h-1v-3.8c-0.3,0.9-0.8,1.6-1.3,2.4l-0.5-1.1c0.7-0.8,1.3-1.7,1.7-2.8H5.1v-1h1.5V5h1v3.8h1.2
	v1H7.5v0.3c0.5,0.5,1,1.1,1.6,1.7L8.5,12.7z M14.5,14c0,0.7-0.3,1-1,1h-0.8l-0.3-0.9l0.7,0.1c0.2,0,0.3-0.1,0.3-0.4v-0.4h-3v1.7h-1
	V9.8h4.9V14z M15,9.2h-6V8.4h2.5V7.8h-2V7h2V6.5H9.3V5.6h2.3V5h1v0.6h2.2v0.8h-2.2V7h1.9v0.8h-1.9v0.6H15V9.2z"/>
</svg>
