<?xml version="1.0" encoding="utf-8"?>
<!-- Generator: Adobe Illustrator 19.0.0, SVG Export Plug-In . SVG Version: 6.00 Build 0)  -->
<svg version="1.1" id="图层_1" xmlns="http://www.w3.org/2000/svg" xmlns:xlink="http://www.w3.org/1999/xlink" x="0px" y="0px"
	 viewBox="0 0 20 20" style="enable-background:new 0 0 20 20;" xml:space="preserve">
<style type="text/css">
	.st0{fill:#5A626D;}
</style>
<path id="Fill-1" class="st0" d="M13,7.5c0,1.7-1.3,3-3,3s-3-1.3-3-3s1.3-3,3-3S13,5.8,13,7.5"/>
<path id="Fill-3" class="st0" d="M4,16v0.4c0,0.7,0.5,1.2,1.2,1.2h9.6c0.7,0,1.2-0.5,1.2-1.2V16c0-0.5-0.2-0.9-0.5-1.3
	c-1.4-1.4-3.3-2.3-5.5-2.3s-4.1,0.9-5.5,2.3C4.2,15.1,4,15.6,4,16"/>
<path id="Combined-Shape" class="st0" d="M14.2,7.5c0,1.7-1,3.2-2.5,3.9c2,0.3,3.7,1.2,5.1,2.6H18c0.6,0,1-0.5,1-1.2v-0.4
	c0-0.5-0.2-0.9-0.4-1.3c-1-1.2-2.3-2-3.8-2.2C16,8.6,17,7.4,17,6c0-1.7-1.3-3-3-3c-0.8,0-1.5,0.3-2,0.8C13.3,4.5,14.2,5.9,14.2,7.5
	 M3.2,14H2c-0.6,0-1-0.5-1-1.2v-0.4c0-0.5,0.2-0.9,0.4-1.3c1-1.2,2.3-2,3.8-2.2C4,8.6,3,7.4,3,6c0-1.7,1.3-3,3-3
	c0.8,0,1.5,0.3,2,0.8C6.7,4.5,5.8,5.9,5.8,7.5c0,1.7,1,3.2,2.5,3.9C6.3,11.7,4.6,12.6,3.2,14z"/>
</svg>
