<?xml version="1.0" encoding="utf-8"?>
<!-- Generator: Adobe Illustrator 19.0.0, SVG Export Plug-In . SVG Version: 6.00 Build 0)  -->
<svg version="1.1" id="图层_1" xmlns="http://www.w3.org/2000/svg" xmlns:xlink="http://www.w3.org/1999/xlink" x="0px" y="0px"
	 viewBox="0 0 20 20" style="enable-background:new 0 0 20 20;" xml:space="preserve">
<style type="text/css">
	.st0{fill:#FFFFFF;}
</style>
<path id="Fill-1" class="st0" d="M13.6,6.6c0,2-1.6,3.6-3.5,3.6S6.5,8.5,6.5,6.6S8.1,3,10.1,3S13.6,4.6,13.6,6.6"/>
<path id="Fill-3" class="st0" d="M3,15.4v0.4c0,0.7,0.6,1.3,1.4,1.3h11.3c0.8,0,1.4-0.6,1.4-1.3v-0.4c0-0.5-0.2-1-0.6-1.4
	c-1.6-1.5-3.9-2.5-6.5-2.5s-4.8,1-6.5,2.5C3.2,14.4,3,14.9,3,15.4"/>
</svg>
