<?xml version="1.0" encoding="utf-8"?>
<!-- Generator: Adobe Illustrator 19.0.0, SVG Export Plug-In . SVG Version: 6.00 Build 0)  -->
<svg version="1.1" id="图层_1" xmlns="http://www.w3.org/2000/svg" xmlns:xlink="http://www.w3.org/1999/xlink" x="0px" y="0px"
	 viewBox="0 0 20 20" style="enable-background:new 0 0 20 20;" xml:space="preserve">
<style type="text/css">
	.st0{fill:#5A626D;}
</style>
<path class="st0" d="M15.5,19h-11C2.6,19,1,17.4,1,15.5v-11C1,2.6,2.6,1,4.5,1h11C17.4,1,19,2.6,19,4.5v11C19,17.4,17.4,19,15.5,19z
	 M4.5,4C4.2,4,4,4.2,4,4.5v11C4,15.8,4.2,16,4.5,16h11c0.3,0,0.5-0.2,0.5-0.5v-11C16,4.2,15.8,4,15.5,4H4.5z"/>
<path class="st0" d="M15.5,2.5h-11c-1.1,0-2,0.9-2,2v11c0,1.1,0.9,2,2,2h11c1.1,0,2-0.9,2-2v-11C17.5,3.4,16.6,2.5,15.5,2.5z M10,5
	c1.4,0,2.5,1.1,2.5,2.5S11.4,10,10,10S7.5,8.9,7.5,7.5S8.6,5,10,5z M15.5,14.6c0,0.5-0.5,0.9-1.1,0.9H5.6c-0.6,0-1.1-0.4-1.1-0.9
	v-0.3c0-0.4,0.2-0.7,0.5-1c1.3-1.1,3-1.8,5-1.8s3.8,0.7,5,1.8c0.3,0.3,0.5,0.6,0.5,1V14.6z"/>
</svg>
