<?xml version="1.0" encoding="utf-8"?>
<!-- Generator: Adobe Illustrator 19.0.0, SVG Export Plug-In . SVG Version: 6.00 Build 0)  -->
<svg version="1.1" id="图层_1" xmlns="http://www.w3.org/2000/svg" xmlns:xlink="http://www.w3.org/1999/xlink" x="0px" y="0px"
	 viewBox="5 0 30 20" style="enable-background:new 5 0 30 20;" xml:space="preserve">
<style type="text/css">
	.st0{fill:#969FA9;}
</style>
<rect x="12.4" y="8.6" class="st0" width="4" height="1"/>
<rect x="12.4" y="12.3" class="st0" width="4.5" height="1.2"/>
<path class="st0" d="M33,0H7C5.9,0,5,0.9,5,2v16c0,1.1,0.9,2,2,2h26c1.1,0,2-0.9,2-2V2C35,0.9,34.1,0,33,0z M17.9,14.7h-1v-0.4h-4.5
	v0.4h-1V7.8h6v2.8h-5v0.9h5.5V14.7z M18.9,8.3h-1V6.9H11v1.3h-1V6h3.9c-0.1-0.3-0.3-0.6-0.5-0.8L14.5,5c0.1,0.3,0.3,0.6,0.4,1h4V8.3
	z M23.6,11.1c-0.4,0.9-0.8,1.7-1.2,2.4l-0.6-0.8c0.5-0.7,0.9-1.6,1.2-2.6C22.5,9.5,22,9,21.6,8.4l0.6-0.6c0.3,0.4,0.7,0.8,1.1,1.3
	c0.2-0.7,0.3-1.3,0.4-2.1l0.9,0.2c-0.2,1-0.4,2-0.6,2.9c0.4,0.5,0.7,1,1.1,1.7l-0.7,0.6C24.1,11.9,23.9,11.4,23.6,11.1z M25.2,13.7
	L24.5,13c0.5-0.8,1-1.6,1.3-2.6c-0.4-0.6-0.9-1.3-1.3-1.8l0.6-0.6c0.3,0.4,0.7,0.8,1.1,1.3c0.2-0.7,0.3-1.5,0.5-2.3l0.9,0.2
	c-0.2,1.1-0.4,2.2-0.7,3.1c0.4,0.6,0.8,1.2,1.2,1.9l-0.7,0.7c-0.3-0.5-0.6-1-0.9-1.5C26.1,12.2,25.7,13,25.2,13.7z M29,13.6
	c0,0.7-0.4,1.1-1,1.1h-1l-0.3-1l1,0c0.2,0,0.4-0.1,0.4-0.4V6.4h-6.5v8.3h-1V5.5H29V13.6z"/>
</svg>
