<?xml version="1.0" encoding="UTF-8" standalone="no"?>
<svg width="30px" height="20px" viewBox="0 0 30 20" version="1.1" xmlns="http://www.w3.org/2000/svg" xmlns:xlink="http://www.w3.org/1999/xlink">
    <!-- Generator: Sketch 39.1 (31720) - http://www.bohemiancoding.com/sketch -->
    <title>Icon/官网 blue</title>
    <desc>Created with Sketch.</desc>
    <defs></defs>
    <g id="Symbols" stroke="none" stroke-width="1" fill="none" fill-rule="evenodd">
        <g id="Icon/官网-blue">
            <rect id="wireframe" fill-opacity="0" fill="#FF8888" x="0" y="0" width="42" height="20"></rect>
            <g id="Group">
                <path d="M1.99161703,0 L28.008383,0 C29.1083227,0 30,0.894513756 30,1.99406028 L30,18.0059397 C30,19.1072288 29.1021596,20 28.008383,20 L1.99161703,20 C0.891677316,20 0,19.1054862 0,18.0059397 L0,1.99406028 C0,0.892771196 0.89784041,0 1.99161703,0 Z" id="Rectangle-11" fill="#6BA2FC"></path>
                <path d="M13.8635184,5.98598858 L9.90918526,5.98598858 C9.76388168,5.6123508 9.6185781,5.29060716 9.47327452,5 L8.40425532,5.16606124 C8.58069538,5.41515309 8.74675662,5.69538142 8.8920602,5.98598858 L5,5.98598858 L5,8.24857291 L5.99636741,8.24857291 L5.99636741,6.94084069 L12.867151,6.94084069 L12.867151,8.25895174 L13.8635184,8.25895174 L13.8635184,5.98598858 Z M12.389725,7.76076803 L6.43227815,7.76076803 L6.43227815,14.7042034 L7.40788791,14.7042034 L7.40788791,14.3201868 L11.8915413,14.3201868 L11.8915413,14.6938246 L12.867151,14.6938246 L12.867151,11.424494 L7.40788791,11.424494 L7.40788791,10.5111572 L12.389725,10.5111572 L12.389725,7.76076803 Z M7.40788791,13.469123 L7.40788791,12.265179 L11.8915413,12.265179 L11.8915413,13.469123 L7.40788791,13.469123 Z M7.40788791,9.66009341 L7.40788791,8.61183186 L11.424494,8.61183186 L11.424494,9.66009341 L7.40788791,9.66009341 Z M19.4058121,12.2963155 L20.0596783,11.6528282 C19.6652828,11.0508563 19.291645,10.5007784 18.9387649,10.0025947 C19.1878568,9.14115205 19.3850545,8.18629995 19.5407369,7.14841723 L18.6377789,6.99273482 C18.5339907,7.72963155 18.3990659,8.42501297 18.2433835,9.07887909 C17.8489881,8.58069538 17.4961079,8.15516347 17.1639855,7.80228334 L16.5620135,8.39387649 C17.0394395,8.95433316 17.4961079,9.52516866 17.9320187,10.1271406 C17.5998962,11.1131292 17.195122,11.9745719 16.7073171,12.7114686 L17.3404255,13.4795018 C17.8178516,12.7944992 18.2330047,11.9849507 18.5858848,11.0508563 C18.8661131,11.4452517 19.1359626,11.8604048 19.4058121,12.2963155 L19.4058121,12.2963155 Z M22.3949144,12.7944992 L23.0591593,12.1406331 C22.6440062,11.4556305 22.2496108,10.8329009 21.875973,10.2620654 C22.1665802,9.33834977 22.4052932,8.31084587 22.5921121,7.17955371 L21.6787753,7.0238713 C21.5542294,7.81266217 21.398547,8.57031655 21.2117281,9.2760768 C20.8380903,8.74675662 20.4852102,8.30046705 20.1530877,7.92682927 L19.5407369,8.50804359 C19.9974053,9.08925791 20.4436949,9.70160872 20.8796056,10.345096 C20.5163467,11.3414634 20.0700571,12.2132849 19.5303581,12.9709393 L20.1530877,13.7285937 C20.6720291,13.0435911 21.1183186,12.2340426 21.5023352,11.2999481 C21.8033212,11.7773742 22.1043072,12.2755579 22.3949144,12.7944992 L22.3949144,12.7944992 Z M23.0072652,14.6315516 C23.6922678,14.6315516 24.0451479,14.2786715 24.0451479,13.5729113 L24.0451479,5.47742605 L15.5760249,5.47742605 L15.5760249,14.6938246 L16.5516347,14.6938246 L16.5516347,6.42189933 L23.0695381,6.42189933 L23.0695381,13.3549559 C23.0695381,13.5936689 22.9346134,13.7182148 22.6855215,13.7182148 L21.7099118,13.6766995 L21.9693825,14.6315516 L23.0072652,14.6315516 Z" id="官网" fill="#FFFFFF"></path>
            </g>
        </g>
    </g>
</svg>