<?xml version="1.0" encoding="utf-8"?>
<!-- Generator: Adobe Illustrator 19.0.0, SVG Export Plug-In . SVG Version: 6.00 Build 0)  -->
<svg version="1.1" id="图层_1" xmlns="http://www.w3.org/2000/svg" xmlns:xlink="http://www.w3.org/1999/xlink" x="0px" y="0px"
	 viewBox="0 0 20 20" style="enable-background:new 0 0 20 20;" xml:space="preserve">
<style type="text/css">
	.st0{clip-path:url(#SVGID_2_);fill:#969FA9;}
	.st1{fill:#969FA9;}
</style>
<g>
	<g>
		<defs>
			<path id="SVGID_1_" d="M11.9,11.2c0.3,0.5,0.1,1.1-0.4,1.4c-0.5,0.2-1.1,0.1-1.4-0.4l-2-3.5C7.8,8.2,8,7.6,8.5,7.3
				C9,7,9.6,7.2,9.9,7.7L11.9,11.2z"/>
		</defs>
		<clipPath id="SVGID_2_">
			<use xlink:href="#SVGID_1_"  style="overflow:visible;"/>
		</clipPath>
		<rect x="4" y="2" class="st0" width="12" height="16"/>
	</g>
</g>
<path class="st1" d="M6.4,11.2L4.7,8.3C4,7,4.4,5.3,5.7,4.6l1.7-1c1.3-0.8,3-0.3,3.8,1l1.6,2.8l-1.3,0.7L9.9,5.3
	C9.6,4.7,8.8,4.5,8.2,4.9l-1.7,1C5.9,6.2,5.7,7,6,7.6l1.6,2.8L6.4,11.2z"/>
<path class="st1" d="M11.1,16.7c-1,0-1.9-0.5-2.4-1.4l-1.6-2.8l1.3-0.8l1.6,2.8c0.3,0.6,1.1,0.8,1.7,0.5l1.7-1
	c0.3-0.2,0.5-0.4,0.6-0.8c0.1-0.3,0-0.7-0.1-0.9l-1.6-2.8l1.3-0.8l1.6,2.8c0.4,0.6,0.5,1.4,0.3,2.1s-0.6,1.3-1.3,1.7l-1.7,1
	C12.1,16.6,11.6,16.7,11.1,16.7z"/>
</svg>
