<?xml version="1.0" encoding="utf-8"?>
<!-- Generator: Adobe Illustrator 19.0.0, SVG Export Plug-In . SVG Version: 6.00 Build 0)  -->
<svg version="1.1" id="图层_1" xmlns="http://www.w3.org/2000/svg" xmlns:xlink="http://www.w3.org/1999/xlink" x="0px" y="0px"
	 viewBox="0 0 20 20" style="enable-background:new 0 0 20 20;" xml:space="preserve">
<style type="text/css">
	.st0{fill-rule:evenodd;clip-rule:evenodd;fill:#8B939D;}
</style>
<path class="st0" d="M12.5,7.6c0.2,0,0.3,0,0.5,0c-0.5-2.2-2.8-3.8-5.4-3.8c-2.9,0-5.4,2-5.4,4.6c0,1.5,0.8,2.7,2.1,3.6l-0.5,1.6
	l1.9-0.9C6.4,12.9,7,13,7.6,13c0.2,0,0.3,0,0.5,0C8,12.7,8,12.3,8,11.9C8,9.5,10,7.6,12.5,7.6z M9.6,6.2c0.4,0,0.7,0.3,0.7,0.7
	c0,0.4-0.3,0.7-0.7,0.7c-0.4,0-0.8-0.3-0.8-0.7C8.8,6.4,9.2,6.2,9.6,6.2z M5.9,7.5c-0.4,0-0.8-0.3-0.8-0.7c0-0.4,0.4-0.7,0.8-0.7
	c0.4,0,0.7,0.3,0.7,0.7C6.6,7.2,6.3,7.5,5.9,7.5z M17.4,11.8c0-2.2-2.1-3.9-4.6-3.9c-2.5,0-4.6,1.8-4.6,3.9c0,2.2,2,3.9,4.6,3.9
	c0.5,0,1.1-0.1,1.6-0.3l1.5,0.8l-0.4-1.3C16.6,14.1,17.4,13,17.4,11.8z M11.4,11.2c-0.3,0-0.5-0.3-0.5-0.5c0-0.3,0.3-0.5,0.5-0.5
	c0.4,0,0.7,0.3,0.7,0.5C12.1,10.9,11.8,11.2,11.4,11.2z M14.3,11.2c-0.3,0-0.5-0.3-0.5-0.5c0-0.3,0.3-0.5,0.5-0.5
	c0.4,0,0.7,0.3,0.7,0.5C15,10.9,14.7,11.2,14.3,11.2z M0,4c0-2.2,1.8-4,4-4h12c2.2,0,4,1.8,4,4v12c0,2.2-1.8,4-4,4H4
	c-2.2,0-4-1.8-4-4V4z"/>
</svg>
