<?xml version="1.0" encoding="UTF-8" standalone="no"?>
<svg width="20px" height="20px" viewBox="0 0 20 20" version="1.1" xmlns="http://www.w3.org/2000/svg" xmlns:xlink="http://www.w3.org/1999/xlink">
    <!-- Generator: Sketch 39.1 (31720) - http://www.bohemiancoding.com/sketch -->
    <title>Social/Icon Wechat block color</title>
    <desc>Created with Sketch.</desc>
    <defs></defs>
    <g id="-第三方机构活动_项目详情页" stroke="none" stroke-width="1" fill="none" fill-rule="evenodd">
        <g id="弹窗1" transform="translate(-477.000000, -157.000000)">
            <g id="Right-Content" transform="translate(140.000000, 50.000000)">
                <g id="Group-13">
                    <g id="Group-19" transform="translate(180.000000, 40.000000)">
                        <g id="Social/Icon-Wechat-block-color" transform="translate(157.000000, 67.000000)">
                            <g id="Group" fill="#35C021">
                                <path d="M0,3.99922997 C0,1.79051625 1.79246765,0 3.99922997,0 L16.00077,0 C18.2094838,0 20,1.79246765 20,3.99922997 L20,16.00077 C20,18.2094838 18.2075324,20 16.00077,20 L3.99922997,20 C1.79051625,20 0,18.2075324 0,16.00077 L0,3.99922997 Z M14.3331497,11.1540609 C14.0679604,11.1540609 13.8008735,10.8865394 13.8008735,10.6142407 C13.8008735,10.3452861 14.0679604,10.0744205 14.3331497,10.0744205 C14.7349661,10.0744205 15.0039506,10.3452861 15.0039506,10.6142407 C15.0039506,10.8865394 14.7349661,11.1540609 14.3331497,11.1540609 Z M11.3852313,11.1540609 C11.1186188,11.1540609 10.8491598,10.8865394 10.8491598,10.6142407 C10.8491598,10.3452861 11.1186188,10.0744205 11.3852313,10.0744205 C11.7908428,10.0744205 12.0560322,10.3452861 12.0560322,10.6142407 C12.0560322,10.8865394 11.7908428,11.1540609 11.3852313,11.1540609 Z M17.4153232,11.8295527 C17.4153232,9.67170514 15.2710375,7.91275124 12.8629857,7.91275124 C10.3130884,7.91275124 8.30495536,9.67170514 8.30495536,11.8295527 C8.30495536,13.9907443 10.3130884,15.7458765 12.8629857,15.7458765 C13.3966851,15.7458765 13.9351286,15.6102048 14.4712,15.4750109 L15.941364,16.2856966 L15.5381245,14.9371016 C16.6140625,14.1240273 17.4153232,13.0462978 17.4153232,11.8295527 Z M5.89168513,7.50869822 C5.48986876,7.50869822 5.08473159,7.2378327 5.08473159,6.83320642 C5.08473159,6.427147 5.48986876,6.15962549 5.89168513,6.15962549 C6.2935015,6.15962549 6.56058842,6.427147 6.56058842,6.83320642 C6.56058842,7.2378327 6.2935015,7.50869822 5.89168513,7.50869822 Z M9.64228753,6.15962549 C10.0460015,6.15962549 10.3130884,6.427147 10.3130884,6.83320642 C10.3130884,7.2378327 10.0460015,7.50869822 9.64228753,7.50869822 C9.24094556,7.50869822 8.83770599,7.2378327 8.83770599,6.83320642 C8.83770599,6.427147 9.24094556,6.15962549 9.64228753,6.15962549 Z M12.5237901,7.62287258 C12.6978947,7.62287258 12.8696273,7.63577094 13.0399367,7.65487962 C12.5764484,5.48031196 10.2680205,3.86515087 7.63273128,3.86515087 C4.68671042,3.86515087 2.27344019,5.8868491 2.27344019,8.45457783 C2.27344019,9.9369336 3.07612413,11.1541564 4.4182003,12.0981252 L3.88212887,13.7214075 L5.75553248,12.7755279 C6.42585896,12.9092886 6.96382799,13.0463934 7.63273128,13.0463934 C7.8006687,13.0463934 7.96765732,13.0382722 8.13322274,13.0248961 C8.02838045,12.6642198 7.96765732,12.2863457 7.96765732,11.89414 C7.96765732,9.53660678 9.97816238,7.62287258 12.5237901,7.62287258 Z" id="Combined-Shape"></path>
                            </g>
                            <rect id="wireframe" fill-opacity="0" fill="#FF8888" x="0" y="0" width="20" height="20"></rect>
                        </g>
                    </g>
                </g>
            </g>
        </g>
    </g>
</svg>