<?xml version="1.0" encoding="utf-8"?>
<!-- Generator: Adobe Illustrator 19.0.0, SVG Export Plug-In . SVG Version: 6.00 Build 0)  -->
<svg version="1.1" id="图层_1" xmlns="http://www.w3.org/2000/svg" xmlns:xlink="http://www.w3.org/1999/xlink" x="0px" y="0px"
	 viewBox="0 0 20 20" style="enable-background:new 0 0 20 20;" xml:space="preserve">
<style type="text/css">
	.st0{fill-rule:evenodd;clip-rule:evenodd;fill:#8A929B;}
</style>
<path class="st0" d="M14.7,3.5c-0.9-0.2-1.8,0-2.1,0c0,0,0,0-0.1,0c0,0,0,0,0,0C12.2,3.6,12,3.8,12,4.1c0,0.3,0.3,0.6,0.6,0.6
	c0,0,0.3,0,0.6-0.1c0.2-0.1,2.1-0.1,3,1.5c0.5,1.1,0.2,1.9,0.2,2c0,0-0.1,0.3-0.1,0.6c0,0.3,0.3,0.5,0.6,0.5c0.3,0,0.5,0,0.6-0.5h0
	C18.5,5.4,16.3,3.8,14.7,3.5z M15,8.3c0.2,0,0.4-0.2,0.4-0.3c0,0,0,0,0,0c0.3-2.8-2.3-2.3-2.3-2.3c-0.2,0-0.4,0.2-0.4,0.4
	c0,0.2,0.2,0.4,0.4,0.4C15,6,14.6,7.9,14.6,7.9C14.6,8.1,14.7,8.3,15,8.3z M7.8,9.9c-2.6,0.3-2.3,2.7-2.3,2.7s0,0.7,0.7,1.1
	C7.7,14.5,9.2,14,10,13C10.8,12,10.3,9.6,7.8,9.9z M7.1,13.2c-0.5,0.1-0.9-0.2-0.9-0.6c0-0.4,0.3-0.8,0.8-0.9C7.6,11.7,8,12,8,12.4
	C8,12.8,7.6,13.2,7.1,13.2z M8.6,11.9c-0.2,0.1-0.4,0.1-0.4,0c-0.1-0.1-0.1-0.4,0.1-0.5c0.2-0.1,0.4-0.1,0.5,0
	C8.8,11.6,8.8,11.8,8.6,11.9z M13.4,8.9c0,0,0.6-1-0.1-1.7c-0.9-0.9-3,0.1-3,0.1C9.4,7.6,9.7,7.2,9.8,6.6c0-0.7-0.3-2-2.4-1.2
	C5.2,6.1,3.3,8.7,3.3,8.7c-1.3,1.7-1.1,3-1.1,3c0.3,2.9,3.5,3.7,5.9,3.9c2.6,0.2,6.1-0.9,7.1-3.1c1.1-2.2-0.9-3.1-1.5-3.2
	C13.1,9.2,13.4,8.9,13.4,8.9z M8.3,14.7c-2.6,0.1-4.6-1.1-4.6-2.8c0-1.7,2.1-3,4.6-3.1c2.6-0.1,4.6,0.9,4.6,2.6
	C12.9,13.1,10.8,14.6,8.3,14.7z M0,4c0-2.2,1.8-4,4-4h12c2.2,0,4,1.8,4,4v12c0,2.2-1.8,4-4,4H4c-2.2,0-4-1.8-4-4V4z"/>
</svg>
