<?xml version="1.0" encoding="utf-8"?>
<!-- Generator: Adobe Illustrator 19.0.0, SVG Export Plug-In . SVG Version: 6.00 Build 0)  -->
<svg version="1.1" id="图层_1" xmlns="http://www.w3.org/2000/svg" xmlns:xlink="http://www.w3.org/1999/xlink" x="0px" y="0px"
	 viewBox="0 0 20 20" style="enable-background:new 0 0 20 20;" xml:space="preserve">
<style type="text/css">
	.st0{fill:#5A626D;}
</style>
<path class="st0" d="M13.5,18H7.2l-1.5-1.1H2V8.7l0.8-0.1C4.6,8.2,7,7.3,7,3V2h2c1.7,0,3,1.3,3,3v1.5h3c0.8,0,1.6,0.3,2.1,0.9
	c0.5,0.6,0.7,1.4,0.6,2.2l-0.9,5.6C16.5,16.8,15.1,18,13.5,18z M7.8,16h5.7c0.6,0,1.2-0.5,1.3-1.1l0.9-5.6c0-0.2,0-0.4-0.1-0.6
	S15.2,8.5,15,8.5h-5V5c0-0.6-0.4-1-1-1h0c-0.2,2.6-1.3,5.4-5,6.3v4.6h2.3L7.8,16z"/>
<path class="st0" d="M16.2,13.1h-3.8c-0.4,0-0.7-0.3-0.7-0.7v0c0-0.4,0.3-0.7,0.7-0.7h3.8V13.1z"/>
<path class="st0" d="M15.2,15.3h-2.8c-0.4,0-0.7-0.3-0.7-0.7v0c0-0.4,0.3-0.7,0.7-0.7h2.8V15.3z"/>
<path class="st0" d="M16.2,11h-3.8c-0.4,0-0.7-0.3-0.7-0.7v0c0-0.4,0.3-0.7,0.7-0.7h3.8V11z"/>
</svg>
